<svg width="509" height="415" viewBox="0 0 509 415" fill="none" xmlns="http://www.w3.org/2000/svg">
<path d="M245.199 0.592753C229.024 3.84581 214.204 17.6713 208.06 35.292C205.891 41.4367 205.8 58.696 207.879 65.3828C211.855 77.9432 221.524 89.7807 232.277 95.2025C248.723 103.516 268.241 101.98 282.428 91.1362C287.488 87.3409 287.669 87.0698 291.374 82.2806C306.645 62.5816 305.832 34.298 289.567 16.1351C284.416 10.4423 274.838 4.1169 268.241 1.94819C262.096 0.0505764 251.253 -0.581962 245.199 0.592753ZM266.072 6.82778C274.295 9.4483 279.356 12.7013 284.958 18.6653C293.362 27.8823 297.157 37.5511 297.157 50.3826C297.157 70.5335 285.952 86.7987 267.157 93.6663C260.56 96.0157 247.909 96.0157 241.313 93.6663C226.765 88.3349 217.096 77.7625 212.668 62.4008C210.499 55.1718 211.132 40.9849 213.933 33.8462C222.246 12.0688 245.47 0.0505764 266.072 6.82778Z" fill="url(#paint0_linear_95_30)"/>
<path d="M221.704 99.4497C206.614 103.245 196.945 107.311 186.915 113.998C169.475 125.655 162.517 137.764 157.095 165.505C151.764 192.975 153.39 213.487 161.432 222.343C166.673 228.126 169.655 229.572 176.071 229.482C181.041 229.482 183.029 228.849 189.174 225.777C193.24 223.789 197.397 221.53 198.571 220.897C200.288 219.903 200.831 219.903 201.102 220.807C202.005 223.156 208.511 230.656 212.758 234.271C225.138 244.572 237.337 248.91 254.235 249C264.988 249 272.94 247.373 282.067 243.217C290.47 239.331 301.856 229.753 306.555 222.524C308.633 219.451 309.898 219.451 314.597 222.614C324.266 229.12 335.561 231.741 341.254 228.759C345.14 226.771 350.11 221.71 351.646 218.096C355.26 209.963 355.441 208.789 355.441 194.331C355.441 181.951 355.08 178.065 352.911 167.674C349.748 152.764 345.953 140.745 342.429 134.691C334.387 120.866 317.489 108.576 298.513 102.703C279.808 96.9196 277.729 96.5581 275.832 98.5461C274.928 99.4497 271.946 101.257 269.145 102.522C264.807 104.51 262.91 104.781 254.687 104.781C245.741 104.872 244.837 104.691 239.144 101.89C235.711 100.263 233 98.5461 233 98.0039C233 96.8292 230.921 97.1003 221.704 99.4497ZM232.548 104.42C233.361 105.685 240.048 108.667 245.108 109.932C247.638 110.564 252.608 110.835 257.398 110.564C264.265 110.113 266.343 109.57 272.217 106.679L279.085 103.245L285.681 104.781C308.362 110.203 325.079 119.691 334.748 132.703C346.495 148.517 354.628 192.885 349.025 210.596C347.218 216.289 341.616 222.976 337.188 224.692C334.838 225.596 327.248 223.97 322.368 221.349C311.434 215.747 298.151 203.728 294.446 196.138C288.031 182.945 293.723 172.101 305.651 174.812C309.356 175.716 317.76 180.595 326.706 187.192C329.055 188.818 331.495 188.367 331.495 186.198C331.495 184.481 328.242 181.409 322.188 177.523C319.477 175.716 317.76 173.818 317.398 172.282C313.061 152.764 298.784 134.149 282.157 126.559C270.681 121.318 265.801 120.233 253.331 120.324C243.03 120.324 240.68 120.595 234.355 122.763C223.783 126.287 216.373 130.986 208.15 139.209C198.662 148.788 193.059 158.999 190.168 172.372C189.806 173.909 187.728 176.258 184.656 178.698C181.583 181.138 179.776 183.306 179.776 184.481C179.686 187.915 181.854 187.463 187.818 182.945C202.909 171.65 213.03 171.017 217.096 181.228C218.271 184.21 218.361 185.656 217.548 189.361C214.927 201.831 197.126 218.548 181.131 223.789C174.083 226.138 172.366 225.777 167.125 220.988C161.161 215.475 158.631 207.433 158.722 193.879C158.722 177.252 164.414 150.324 170.378 138.306C173.631 131.89 185.921 120.052 193.692 115.986C201.011 112.191 213.12 107.221 217.638 106.137C219.355 105.775 222.247 105.052 223.963 104.6C228.301 103.426 231.915 103.335 232.548 104.42ZM260.38 128.095C267.609 132.974 279.988 148.969 279.988 153.306C279.988 155.294 269.597 158.547 262.368 158.818L256.946 159.089L256.675 142.553C256.584 133.516 256.675 126.107 257.036 126.107C257.307 126.107 258.843 127.01 260.38 128.095ZM242.036 127.643C242.036 128.095 240.952 129.36 239.596 130.625C236.162 133.878 229.566 143.005 227.036 147.975C225.861 150.414 224.506 152.312 224.144 152.312C222.066 152.312 212.216 144.45 212.216 142.733C212.216 141.468 220.078 135.324 225.771 132.251C232.909 128.275 242.036 125.745 242.036 127.643ZM280.35 131.529C287.217 135.053 296.254 141.739 296.254 143.276C296.254 144.36 288.121 150.505 286.765 150.505C286.133 150.505 283.964 147.703 281.886 144.36C278.271 138.306 277.097 136.77 271.494 130.806L268.783 127.914H271.042C272.217 127.914 276.464 129.541 280.35 131.529ZM251.795 143.908L251.524 159.089L246.102 158.908C238.602 158.637 230.831 156.017 230.47 153.667C229.837 148.969 245.65 128.818 250.078 128.818C251.976 128.818 251.976 128.998 251.795 143.908ZM212.487 150.776C214.566 152.493 217.728 154.752 219.626 155.836L222.879 157.734L221.614 162.523C220.981 165.053 220.349 168.125 220.349 169.3C220.349 172.101 218.361 172.644 214.927 170.836C211.493 169.119 204.535 168.939 199.927 170.384C198.12 171.017 196.493 171.288 196.312 171.017C194.867 169.571 205.801 147.794 207.969 147.794C208.421 147.794 210.409 149.149 212.487 150.776ZM304.296 152.673C307.278 157.734 311.525 167.312 311.615 169.21C311.615 169.933 309.537 170.113 304.386 169.752C298.693 169.3 296.796 169.481 294.988 170.746C293.723 171.559 292.368 172.192 291.916 172.192C291.103 172.192 287.579 157.101 288.211 156.469C290.29 154.481 299.597 147.884 300.32 147.794C300.862 147.794 302.669 150.053 304.296 152.673ZM284.687 166.409C285.5 169.842 286.223 174.812 286.223 177.342L286.314 182.132H271.404H256.494V174.089C256.494 169.571 256.855 165.776 257.307 165.505C257.759 165.234 260.922 164.601 264.265 164.059C267.699 163.607 272.94 162.433 275.922 161.439C278.904 160.445 281.796 159.812 282.247 159.902C282.79 159.993 283.874 162.975 284.687 166.409ZM235.259 162.252C237.247 162.794 241.494 163.607 244.747 163.878L250.62 164.511L250.891 173.276L251.163 182.132H237.97H224.867V177.342C224.867 173.186 225.319 170.565 227.216 162.342C227.668 160.083 227.759 160.083 235.259 162.252ZM251.976 196.499V205.445L246.825 206.078C244.024 206.439 238.693 207.524 234.988 208.427C231.283 209.421 228.12 210.054 227.939 209.963C227.216 209.15 224.957 199.029 224.415 193.608L223.783 187.553H237.879H251.976V196.499ZM286.314 191.8C286.314 196.047 283.512 209.692 282.338 210.777C282.067 211.048 279.265 210.505 276.193 209.421C273.03 208.427 267.337 207.072 263.542 206.53L256.494 205.355V196.499V187.553H271.404H286.314V191.8ZM221.885 206.891C223.06 212.222 222.518 214.662 220.078 214.662C219.626 214.662 217.005 216.379 214.385 218.367C209.144 222.433 207.427 222.433 205.71 218.728C204.716 216.56 204.897 216.108 208.421 213.126C210.499 211.319 213.752 207.885 215.469 205.445C217.277 203.005 219.174 201.198 219.716 201.379C220.259 201.56 221.253 203.999 221.885 206.891ZM299.597 210.957C302.217 213.668 304.386 216.289 304.386 216.831C304.296 218.277 301.133 221.891 299.868 221.891C298.242 221.891 288.121 214.391 288.121 213.126C288.121 212.042 289.567 205.355 290.561 202.011C290.832 201.017 291.464 201.379 292.91 203.367C293.994 204.813 296.976 208.246 299.597 210.957ZM251.434 212.674C251.705 213.578 251.885 220.084 251.795 227.223C251.614 237.253 251.343 240.235 250.349 240.596C247.548 241.681 229.747 220.265 230.47 216.65C230.921 214.662 241.042 211.409 247.638 211.138C250.078 211.048 251.072 211.499 251.434 212.674ZM266.253 212.403C272.307 213.668 279.988 216.289 279.988 217.012C279.988 218.638 274.657 227.223 270.952 231.831C266.795 236.801 258.934 243.488 257.217 243.578C256.313 243.578 256.223 212.493 257.127 211.68C257.94 210.777 259.205 210.867 266.253 212.403ZM227.036 221.62C228.933 225.506 235.349 234.723 238.783 238.337C243.482 243.217 241.403 243.849 232.367 240.235C223.331 236.711 212.216 229.391 212.216 227.042C212.216 225.686 222.156 218.277 224.054 218.277C224.777 218.277 226.132 219.813 227.036 221.62ZM289.476 221.62C293.814 224.512 295.35 225.958 295.35 227.132C295.35 227.584 293.452 229.482 291.103 231.47C287.398 234.452 284.506 236.078 274.386 241.048C272.669 241.861 270.048 242.042 270.048 241.319C270.048 241.048 272.127 238.337 274.657 235.265C277.097 232.102 280.44 227.223 282.067 224.331C283.603 221.53 285.139 219.18 285.41 219.18C285.681 219.18 287.488 220.265 289.476 221.62Z" fill="url(#paint1_linear_95_30)"/>
<path d="M6.57386 390V314.364H22.5653V376.815H54.9915V390H6.57386ZM81.5732 314.364V390H65.5817V314.364H81.5732ZM108.395 314.364L126.676 371.83H127.378L145.696 314.364H163.423L137.349 390H116.741L90.6307 314.364H108.395ZM172.527 390V314.364H223.493V327.548H188.518V345.571H220.871V358.756H188.518V376.815H223.641V390H172.527ZM236.207 390V314.364H252.198V345.571H284.661V314.364H300.616V390H284.661V358.756H252.198V390H236.207ZM313.8 390V314.364H364.766V327.548H329.792V345.571H362.144V358.756H329.792V376.815H364.914V390H313.8ZM390.517 390H373.381L399.491 314.364H420.099L446.173 390H429.037L410.091 331.648H409.5L390.517 390ZM389.446 360.27H429.923V372.753H389.446V360.27ZM443.154 327.548V314.364H505.273V327.548H482.117V390H466.31V327.548H443.154Z" fill="url(#paint2_linear_95_30)"/>
<defs>
<linearGradient id="paint0_linear_95_30" x1="206.332" y1="50.259" x2="302.357" y2="50.7583" gradientUnits="userSpaceOnUse">
<stop stop-color="#036A35"/>
<stop offset="1" stop-color="#94CC23"/>
</linearGradient>
<linearGradient id="paint1_linear_95_30" x1="153.91" y1="173.171" x2="355.521" y2="174.63" gradientUnits="userSpaceOnUse">
<stop stop-color="#036A35"/>
<stop offset="1" stop-color="#94CC23"/>
</linearGradient>
<linearGradient id="paint2_linear_95_30" x1="-0.228232" y1="351.993" x2="508.982" y2="340.788" gradientUnits="userSpaceOnUse">
<stop stop-color="#036A35"/>
<stop offset="1" stop-color="#94CC23"/>
</linearGradient>
</defs>
</svg>
