<svg width="784" height="407" viewBox="0 0 784 407" fill="none" xmlns="http://www.w3.org/2000/svg">
<path d="M381.54 0.638381C364.085 4.14152 348.093 19.0299 341.462 38.0052C339.121 44.6222 339.024 63.2083 341.267 70.4092C345.557 83.9352 355.991 96.6828 367.595 102.521C385.343 111.474 406.406 109.82 421.715 98.1424C427.176 94.0554 427.371 93.7635 431.369 88.6061C447.849 67.3926 446.971 36.9348 429.419 17.3756C423.861 11.2451 413.524 4.43345 406.406 2.09802C399.775 0.0545249 388.073 -0.626641 381.54 0.638381ZM404.065 7.35273C412.939 10.1747 418.4 13.6778 424.446 20.1003C433.514 30.0258 437.61 40.4379 437.61 54.2559C437.61 75.9559 425.518 93.4716 405.236 100.867C398.117 103.397 384.465 103.397 377.347 100.867C361.647 95.1258 351.213 83.7406 346.435 67.198C344.095 59.4133 344.777 44.1357 347.8 36.4482C356.771 12.9967 381.832 0.0545249 404.065 7.35273Z" fill="black"/>
<path d="M381.54 0.638381C364.085 4.14152 348.093 19.0299 341.462 38.0052C339.121 44.6222 339.024 63.2083 341.267 70.4092C345.557 83.9352 355.991 96.6828 367.595 102.521C385.343 111.474 406.406 109.82 421.715 98.1424C427.176 94.0554 427.371 93.7635 431.369 88.6061C447.849 67.3926 446.971 36.9348 429.419 17.3756C423.861 11.2451 413.524 4.43345 406.406 2.09802C399.775 0.0545249 388.073 -0.626641 381.54 0.638381ZM404.065 7.35273C412.939 10.1747 418.4 13.6778 424.446 20.1003C433.514 30.0258 437.61 40.4379 437.61 54.2559C437.61 75.9559 425.518 93.4716 405.236 100.867C398.117 103.397 384.465 103.397 377.347 100.867C361.647 95.1258 351.213 83.7406 346.435 67.198C344.095 59.4133 344.777 44.1357 347.8 36.4482C356.771 12.9967 381.832 0.0545249 404.065 7.35273Z" fill="url(#paint0_linear_135_48)"/>
<path d="M356.186 107.095C339.902 111.182 329.468 115.561 318.644 122.762C299.824 135.315 292.315 148.354 286.464 178.228C280.711 207.81 282.466 229.9 291.145 239.436C296.801 245.664 300.019 247.221 306.942 247.123C312.305 247.123 314.451 246.442 321.082 243.134C325.47 240.993 329.955 238.56 331.223 237.879C333.076 236.809 333.661 236.809 333.953 237.782C334.928 240.312 341.949 248.388 346.533 252.281C359.892 263.374 373.056 268.045 391.291 268.142C402.895 268.142 411.476 266.391 421.325 261.914C430.394 257.73 442.681 247.415 447.751 239.63C449.994 236.322 451.359 236.322 456.43 239.728C466.864 246.734 479.053 249.556 485.196 246.345C489.39 244.204 494.753 238.755 496.41 234.862C500.311 226.104 500.506 224.839 500.506 209.27C500.506 195.939 500.116 191.754 497.776 180.564C494.363 164.508 490.267 151.565 486.464 145.046C477.785 130.157 459.55 116.923 439.073 110.598C418.887 104.37 416.645 103.981 414.597 106.122C413.622 107.095 410.404 109.041 407.381 110.404C402.7 112.544 400.652 112.836 391.779 112.836C382.125 112.934 381.15 112.739 375.006 109.722C371.301 107.971 368.376 106.122 368.376 105.538C368.376 104.273 366.133 104.565 356.186 107.095ZM367.888 112.447C368.766 113.809 375.982 117.021 381.442 118.383C384.173 119.064 389.536 119.356 394.704 119.064C402.115 118.578 404.358 117.994 410.696 114.88L418.107 111.182L425.226 112.836C449.702 118.675 467.742 128.892 478.175 142.905C490.852 159.934 499.628 207.713 493.583 226.786C491.632 232.916 485.587 240.117 480.808 241.966C478.273 242.939 470.082 241.187 464.816 238.365C453.017 232.332 438.683 219.39 434.685 211.216C427.761 197.009 433.904 185.332 446.776 188.251C450.774 189.224 459.843 194.479 469.497 201.583C472.032 203.334 474.665 202.848 474.665 200.512C474.665 198.663 471.155 195.355 464.621 191.17C461.696 189.224 459.843 187.181 459.453 185.526C454.772 164.508 439.365 144.462 421.423 136.288C409.039 130.644 403.773 129.476 390.316 129.574C379.199 129.574 376.664 129.865 369.838 132.201C358.429 135.996 350.433 141.056 341.559 149.911C331.32 160.226 325.275 171.222 322.154 185.624C321.764 187.278 319.521 189.808 316.206 192.435C312.89 195.063 310.94 197.398 310.94 198.663C310.843 202.361 313.183 201.874 319.619 197.009C335.904 184.845 346.825 184.164 351.213 195.16C352.481 198.371 352.578 199.928 351.701 203.918C348.873 217.347 329.663 235.349 312.403 240.993C304.797 243.523 302.944 243.134 297.288 237.976C290.852 232.04 288.122 223.38 288.22 208.783C288.22 190.878 294.363 161.88 300.799 148.938C304.309 142.029 317.571 129.282 325.957 124.903C333.856 120.816 346.923 115.464 351.798 114.296C353.651 113.907 356.771 113.128 358.624 112.642C363.305 111.377 367.205 111.279 367.888 112.447ZM397.922 137.942C405.723 143.197 419.082 160.421 419.082 165.091C419.082 167.232 407.868 170.735 400.067 171.027L394.217 171.319L393.924 153.512C393.826 143.781 393.924 135.801 394.314 135.801C394.607 135.801 396.264 136.774 397.922 137.942ZM378.127 137.456C378.127 137.942 376.957 139.304 375.494 140.667C371.788 144.17 364.67 153.998 361.94 159.35C360.672 161.978 359.209 164.021 358.819 164.021C356.576 164.021 345.947 155.555 345.947 153.706C345.947 152.344 354.431 145.727 360.574 142.418C368.278 138.137 378.127 135.412 378.127 137.456ZM419.472 141.64C426.883 145.435 436.635 152.636 436.635 154.29C436.635 155.458 427.859 162.075 426.396 162.075C425.713 162.075 423.373 159.058 421.13 155.458C417.23 148.938 415.962 147.284 409.916 140.861L406.991 137.748H409.429C410.696 137.748 415.279 139.499 419.472 141.64ZM388.658 154.971L388.366 171.319L382.515 171.125C374.421 170.833 366.035 168.011 365.645 165.481C364.963 160.421 382.027 138.721 386.806 138.721C388.853 138.721 388.853 138.915 388.658 154.971ZM346.24 162.367C348.483 164.216 351.896 166.648 353.944 167.816L357.454 169.86L356.089 175.017C355.406 177.742 354.724 181.05 354.724 182.315C354.724 185.332 352.578 185.916 348.873 183.97C345.167 182.121 337.659 181.926 332.686 183.483C330.735 184.164 328.98 184.456 328.785 184.164C327.225 182.607 339.024 159.156 341.364 159.156C341.852 159.156 343.997 160.615 346.24 162.367ZM445.314 164.41C448.531 169.86 453.115 180.174 453.212 182.218C453.212 182.996 450.969 183.191 445.411 182.802C439.268 182.315 437.22 182.51 435.27 183.872C433.904 184.748 432.442 185.429 431.954 185.429C431.077 185.429 427.274 169.178 427.956 168.497C430.199 166.357 440.243 159.253 441.023 159.156C441.608 159.156 443.558 161.588 445.314 164.41ZM424.153 179.201C425.031 182.899 425.811 188.251 425.811 190.976L425.908 196.133H409.819H393.729V187.473C393.729 182.607 394.119 178.52 394.607 178.228C395.094 177.936 398.507 177.255 402.115 176.671C405.821 176.185 411.476 174.92 414.694 173.849C417.912 172.779 421.033 172.098 421.52 172.195C422.105 172.292 423.276 175.504 424.153 179.201ZM370.813 174.725C372.959 175.309 377.542 176.185 381.052 176.477L387.391 177.158L387.683 186.597L387.976 196.133H373.739H359.599V190.976C359.599 186.5 360.087 183.678 362.135 174.822C362.622 172.39 362.72 172.39 370.813 174.725ZM388.853 211.605V221.239L383.295 221.92C380.272 222.309 374.519 223.477 370.521 224.45C366.523 225.521 363.11 226.202 362.915 226.104C362.135 225.229 359.697 214.33 359.112 208.491L358.429 201.972H373.641H388.853V211.605ZM425.908 206.545C425.908 211.119 422.885 225.813 421.618 226.98C421.325 227.272 418.302 226.688 414.987 225.521C411.574 224.45 405.431 222.991 401.335 222.407L393.729 221.142V211.605V201.972H409.819H425.908V206.545ZM356.381 222.796C357.649 228.537 357.064 231.165 354.431 231.165C353.944 231.165 351.116 233.013 348.288 235.154C342.632 239.533 340.779 239.533 338.926 235.543C337.854 233.208 338.049 232.722 341.852 229.51C344.095 227.564 347.605 223.866 349.458 221.239C351.408 218.612 353.456 216.665 354.041 216.86C354.626 217.055 355.699 219.682 356.381 222.796ZM440.243 227.175C443.071 230.094 445.411 232.916 445.411 233.5C445.314 235.057 441.901 238.949 440.535 238.949C438.78 238.949 427.859 230.873 427.859 229.51C427.859 228.343 429.419 221.142 430.491 217.541C430.784 216.471 431.467 216.86 433.027 219.001C434.197 220.558 437.415 224.256 440.243 227.175ZM388.268 229.024C388.561 229.997 388.756 237.003 388.658 244.691C388.463 255.492 388.171 258.703 387.098 259.092C384.075 260.26 364.865 237.198 365.645 233.305C366.133 231.165 377.054 227.661 384.173 227.37C386.806 227.272 387.878 227.759 388.268 229.024ZM404.26 228.732C410.794 230.094 419.082 232.916 419.082 233.695C419.082 235.446 413.329 244.691 409.331 249.653C404.845 255.005 396.362 262.206 394.509 262.304C393.534 262.304 393.436 228.829 394.412 227.953C395.289 226.98 396.654 227.078 404.26 228.732ZM361.94 238.657C363.987 242.842 370.911 252.767 374.616 256.66C379.687 261.914 377.444 262.596 367.693 258.703C357.942 254.908 345.947 247.026 345.947 244.496C345.947 243.036 356.674 235.057 358.722 235.057C359.502 235.057 360.964 236.711 361.94 238.657ZM429.321 238.657C434.002 241.771 435.66 243.328 435.66 244.593C435.66 245.08 433.612 247.123 431.077 249.264C427.079 252.475 423.958 254.227 413.037 259.579C411.184 260.455 408.356 260.649 408.356 259.871C408.356 259.579 410.599 256.66 413.329 253.351C415.962 249.945 419.57 244.691 421.325 241.577C422.983 238.56 424.641 236.03 424.933 236.03C425.226 236.03 427.176 237.198 429.321 238.657Z" fill="black"/>
<path d="M356.186 107.095C339.902 111.182 329.468 115.561 318.644 122.762C299.824 135.315 292.315 148.354 286.464 178.228C280.711 207.81 282.466 229.9 291.145 239.436C296.801 245.664 300.019 247.221 306.942 247.123C312.305 247.123 314.451 246.442 321.082 243.134C325.47 240.993 329.955 238.56 331.223 237.879C333.076 236.809 333.661 236.809 333.953 237.782C334.928 240.312 341.949 248.388 346.533 252.281C359.892 263.374 373.056 268.045 391.291 268.142C402.895 268.142 411.476 266.391 421.325 261.914C430.394 257.73 442.681 247.415 447.751 239.63C449.994 236.322 451.359 236.322 456.43 239.728C466.864 246.734 479.053 249.556 485.196 246.345C489.39 244.204 494.753 238.755 496.41 234.862C500.311 226.104 500.506 224.839 500.506 209.27C500.506 195.939 500.116 191.754 497.776 180.564C494.363 164.508 490.267 151.565 486.464 145.046C477.785 130.157 459.55 116.923 439.073 110.598C418.887 104.37 416.645 103.981 414.597 106.122C413.622 107.095 410.404 109.041 407.381 110.404C402.7 112.544 400.652 112.836 391.779 112.836C382.125 112.934 381.15 112.739 375.006 109.722C371.301 107.971 368.376 106.122 368.376 105.538C368.376 104.273 366.133 104.565 356.186 107.095ZM367.888 112.447C368.766 113.809 375.982 117.021 381.442 118.383C384.173 119.064 389.536 119.356 394.704 119.064C402.115 118.578 404.358 117.994 410.696 114.88L418.107 111.182L425.226 112.836C449.702 118.675 467.742 128.892 478.175 142.905C490.852 159.934 499.628 207.713 493.583 226.786C491.632 232.916 485.587 240.117 480.808 241.966C478.273 242.939 470.082 241.187 464.816 238.365C453.017 232.332 438.683 219.39 434.685 211.216C427.761 197.009 433.904 185.332 446.776 188.251C450.774 189.224 459.843 194.479 469.497 201.583C472.032 203.334 474.665 202.848 474.665 200.512C474.665 198.663 471.155 195.355 464.621 191.17C461.696 189.224 459.843 187.181 459.453 185.526C454.772 164.508 439.365 144.462 421.423 136.288C409.039 130.644 403.773 129.476 390.316 129.574C379.199 129.574 376.664 129.865 369.838 132.201C358.429 135.996 350.433 141.056 341.559 149.911C331.32 160.226 325.275 171.222 322.154 185.624C321.764 187.278 319.521 189.808 316.206 192.435C312.89 195.063 310.94 197.398 310.94 198.663C310.843 202.361 313.183 201.874 319.619 197.009C335.904 184.845 346.825 184.164 351.213 195.16C352.481 198.371 352.578 199.928 351.701 203.918C348.873 217.347 329.663 235.349 312.403 240.993C304.797 243.523 302.944 243.134 297.288 237.976C290.852 232.04 288.122 223.38 288.22 208.783C288.22 190.878 294.363 161.88 300.799 148.938C304.309 142.029 317.571 129.282 325.957 124.903C333.856 120.816 346.923 115.464 351.798 114.296C353.651 113.907 356.771 113.128 358.624 112.642C363.305 111.377 367.205 111.279 367.888 112.447ZM397.922 137.942C405.723 143.197 419.082 160.421 419.082 165.091C419.082 167.232 407.868 170.735 400.067 171.027L394.217 171.319L393.924 153.512C393.826 143.781 393.924 135.801 394.314 135.801C394.607 135.801 396.264 136.774 397.922 137.942ZM378.127 137.456C378.127 137.942 376.957 139.304 375.494 140.667C371.788 144.17 364.67 153.998 361.94 159.35C360.672 161.978 359.209 164.021 358.819 164.021C356.576 164.021 345.947 155.555 345.947 153.706C345.947 152.344 354.431 145.727 360.574 142.418C368.278 138.137 378.127 135.412 378.127 137.456ZM419.472 141.64C426.883 145.435 436.635 152.636 436.635 154.29C436.635 155.458 427.859 162.075 426.396 162.075C425.713 162.075 423.373 159.058 421.13 155.458C417.23 148.938 415.962 147.284 409.916 140.861L406.991 137.748H409.429C410.696 137.748 415.279 139.499 419.472 141.64ZM388.658 154.971L388.366 171.319L382.515 171.125C374.421 170.833 366.035 168.011 365.645 165.481C364.963 160.421 382.027 138.721 386.806 138.721C388.853 138.721 388.853 138.915 388.658 154.971ZM346.24 162.367C348.483 164.216 351.896 166.648 353.944 167.816L357.454 169.86L356.089 175.017C355.406 177.742 354.724 181.05 354.724 182.315C354.724 185.332 352.578 185.916 348.873 183.97C345.167 182.121 337.659 181.926 332.686 183.483C330.735 184.164 328.98 184.456 328.785 184.164C327.225 182.607 339.024 159.156 341.364 159.156C341.852 159.156 343.997 160.615 346.24 162.367ZM445.314 164.41C448.531 169.86 453.115 180.174 453.212 182.218C453.212 182.996 450.969 183.191 445.411 182.802C439.268 182.315 437.22 182.51 435.27 183.872C433.904 184.748 432.442 185.429 431.954 185.429C431.077 185.429 427.274 169.178 427.956 168.497C430.199 166.357 440.243 159.253 441.023 159.156C441.608 159.156 443.558 161.588 445.314 164.41ZM424.153 179.201C425.031 182.899 425.811 188.251 425.811 190.976L425.908 196.133H409.819H393.729V187.473C393.729 182.607 394.119 178.52 394.607 178.228C395.094 177.936 398.507 177.255 402.115 176.671C405.821 176.185 411.476 174.92 414.694 173.849C417.912 172.779 421.033 172.098 421.52 172.195C422.105 172.292 423.276 175.504 424.153 179.201ZM370.813 174.725C372.959 175.309 377.542 176.185 381.052 176.477L387.391 177.158L387.683 186.597L387.976 196.133H373.739H359.599V190.976C359.599 186.5 360.087 183.678 362.135 174.822C362.622 172.39 362.72 172.39 370.813 174.725ZM388.853 211.605V221.239L383.295 221.92C380.272 222.309 374.519 223.477 370.521 224.45C366.523 225.521 363.11 226.202 362.915 226.104C362.135 225.229 359.697 214.33 359.112 208.491L358.429 201.972H373.641H388.853V211.605ZM425.908 206.545C425.908 211.119 422.885 225.813 421.618 226.98C421.325 227.272 418.302 226.688 414.987 225.521C411.574 224.45 405.431 222.991 401.335 222.407L393.729 221.142V211.605V201.972H409.819H425.908V206.545ZM356.381 222.796C357.649 228.537 357.064 231.165 354.431 231.165C353.944 231.165 351.116 233.013 348.288 235.154C342.632 239.533 340.779 239.533 338.926 235.543C337.854 233.208 338.049 232.722 341.852 229.51C344.095 227.564 347.605 223.866 349.458 221.239C351.408 218.612 353.456 216.665 354.041 216.86C354.626 217.055 355.699 219.682 356.381 222.796ZM440.243 227.175C443.071 230.094 445.411 232.916 445.411 233.5C445.314 235.057 441.901 238.949 440.535 238.949C438.78 238.949 427.859 230.873 427.859 229.51C427.859 228.343 429.419 221.142 430.491 217.541C430.784 216.471 431.467 216.86 433.027 219.001C434.197 220.558 437.415 224.256 440.243 227.175ZM388.268 229.024C388.561 229.997 388.756 237.003 388.658 244.691C388.463 255.492 388.171 258.703 387.098 259.092C384.075 260.26 364.865 237.198 365.645 233.305C366.133 231.165 377.054 227.661 384.173 227.37C386.806 227.272 387.878 227.759 388.268 229.024ZM404.26 228.732C410.794 230.094 419.082 232.916 419.082 233.695C419.082 235.446 413.329 244.691 409.331 249.653C404.845 255.005 396.362 262.206 394.509 262.304C393.534 262.304 393.436 228.829 394.412 227.953C395.289 226.98 396.654 227.078 404.26 228.732ZM361.94 238.657C363.987 242.842 370.911 252.767 374.616 256.66C379.687 261.914 377.444 262.596 367.693 258.703C357.942 254.908 345.947 247.026 345.947 244.496C345.947 243.036 356.674 235.057 358.722 235.057C359.502 235.057 360.964 236.711 361.94 238.657ZM429.321 238.657C434.002 241.771 435.66 243.328 435.66 244.593C435.66 245.08 433.612 247.123 431.077 249.264C427.079 252.475 423.958 254.227 413.037 259.579C411.184 260.455 408.356 260.649 408.356 259.871C408.356 259.579 410.599 256.66 413.329 253.351C415.962 249.945 419.57 244.691 421.325 241.577C422.983 238.56 424.641 236.03 424.933 236.03C425.226 236.03 427.176 237.198 429.321 238.657Z" fill="url(#paint1_linear_135_48)"/>
<path d="M25.65 321.192V342.492H60V362.292H25.65V385.392H64.5V405.942H0V300.642H64.5V321.192H25.65Z" fill="url(#paint2_linear_135_48)"/>
<path d="M106.802 386.142H140.402V405.942H81.1523V300.642H106.802V386.142Z" fill="url(#paint3_linear_135_48)"/>
<path d="M228.387 300.642V321.192H200.487V405.942H174.837V321.192H146.937V300.642H228.387Z" fill="url(#paint4_linear_135_48)"/>
<path d="M291.06 406.992C281.16 406.992 272.06 404.692 263.76 400.092C255.56 395.492 249.01 389.092 244.11 380.892C239.31 372.592 236.91 363.292 236.91 352.992C236.91 342.692 239.31 333.442 244.11 325.242C249.01 317.042 255.56 310.642 263.76 306.042C272.06 301.442 281.16 299.142 291.06 299.142C300.96 299.142 310.01 301.442 318.21 306.042C326.51 310.642 333.01 317.042 337.71 325.242C342.51 333.442 344.91 342.692 344.91 352.992C344.91 363.292 342.51 372.592 337.71 380.892C332.91 389.092 326.41 395.492 318.21 400.092C310.01 404.692 300.96 406.992 291.06 406.992ZM291.06 383.592C299.46 383.592 306.16 380.792 311.16 375.192C316.26 369.592 318.81 362.192 318.81 352.992C318.81 343.692 316.26 336.292 311.16 330.792C306.16 325.192 299.46 322.392 291.06 322.392C282.56 322.392 275.76 325.142 270.66 330.642C265.66 336.142 263.16 343.592 263.16 352.992C263.16 362.292 265.66 369.742 270.66 375.342C275.76 380.842 282.56 383.592 291.06 383.592Z" fill="url(#paint5_linear_135_48)"/>
<path d="M439.43 334.542C439.43 340.642 438.03 346.242 435.23 351.342C432.43 356.342 428.13 360.392 422.33 363.492C416.53 366.592 409.33 368.142 400.73 368.142H384.83V405.942H359.18V300.642H400.73C409.13 300.642 416.23 302.092 422.03 304.992C427.83 307.892 432.18 311.892 435.08 316.992C437.98 322.092 439.43 327.942 439.43 334.542ZM398.78 347.742C403.68 347.742 407.33 346.592 409.73 344.292C412.13 341.992 413.33 338.742 413.33 334.542C413.33 330.342 412.13 327.092 409.73 324.792C407.33 322.492 403.68 321.342 398.78 321.342H384.83V347.742H398.78Z" fill="url(#paint6_linear_135_48)"/>
<path d="M510.22 321.192V342.492H544.57V362.292H510.22V385.392H549.07V405.942H484.57V300.642H549.07V321.192H510.22Z" fill="url(#paint7_linear_135_48)"/>
<path d="M561.373 353.142C561.373 342.742 563.623 333.492 568.123 325.392C572.623 317.192 578.873 310.842 586.873 306.342C594.973 301.742 604.123 299.442 614.323 299.442C626.823 299.442 637.523 302.742 646.423 309.342C655.323 315.942 661.273 324.942 664.273 336.342H636.073C633.973 331.942 630.973 328.592 627.073 326.292C623.273 323.992 618.923 322.842 614.023 322.842C606.123 322.842 599.723 325.592 594.823 331.092C589.923 336.592 587.473 343.942 587.473 353.142C587.473 362.342 589.923 369.692 594.823 375.192C599.723 380.692 606.123 383.442 614.023 383.442C618.923 383.442 623.273 382.292 627.073 379.992C630.973 377.692 633.973 374.342 636.073 369.942H664.273C661.273 381.342 655.323 390.342 646.423 396.942C637.523 403.442 626.823 406.692 614.323 406.692C604.123 406.692 594.973 404.442 586.873 399.942C578.873 395.342 572.623 388.992 568.123 380.892C563.623 372.792 561.373 363.542 561.373 353.142Z" fill="url(#paint8_linear_135_48)"/>
<path d="M729.78 406.992C719.88 406.992 710.78 404.692 702.48 400.092C694.28 395.492 687.731 389.092 682.831 380.892C678.031 372.592 675.63 363.292 675.63 352.992C675.63 342.692 678.031 333.442 682.831 325.242C687.731 317.042 694.28 310.642 702.48 306.042C710.78 301.442 719.88 299.142 729.78 299.142C739.68 299.142 748.73 301.442 756.93 306.042C765.23 310.642 771.73 317.042 776.43 325.242C781.23 333.442 783.63 342.692 783.63 352.992C783.63 363.292 781.23 372.592 776.43 380.892C771.63 389.092 765.13 395.492 756.93 400.092C748.73 404.692 739.68 406.992 729.78 406.992ZM729.78 383.592C738.18 383.592 744.88 380.792 749.88 375.192C754.98 369.592 757.531 362.192 757.531 352.992C757.531 343.692 754.98 336.292 749.88 330.792C744.88 325.192 738.18 322.392 729.78 322.392C721.28 322.392 714.48 325.142 709.38 330.642C704.38 336.142 701.88 343.592 701.88 352.992C701.88 362.292 704.38 369.742 709.38 375.342C714.48 380.842 721.28 383.592 729.78 383.592Z" fill="url(#paint9_linear_135_48)"/>
<defs>
<linearGradient id="paint0_linear_135_48" x1="317.955" y1="51.5253" x2="486.887" y2="83.0004" gradientUnits="userSpaceOnUse">
<stop stop-color="#036A35"/>
<stop offset="1" stop-color="#94CC23"/>
</linearGradient>
<linearGradient id="paint1_linear_135_48" x1="237.586" y1="182.564" x2="581.481" y2="271.711" gradientUnits="userSpaceOnUse">
<stop stop-color="#036A35"/>
<stop offset="1" stop-color="#94CC23"/>
</linearGradient>
<linearGradient id="paint2_linear_135_48" x1="-0.351375" y1="353.061" x2="782.755" y2="322.068" gradientUnits="userSpaceOnUse">
<stop stop-color="#036A35"/>
<stop offset="1" stop-color="#94CC23"/>
</linearGradient>
<linearGradient id="paint3_linear_135_48" x1="-0.351375" y1="353.061" x2="782.755" y2="322.068" gradientUnits="userSpaceOnUse">
<stop stop-color="#036A35"/>
<stop offset="1" stop-color="#94CC23"/>
</linearGradient>
<linearGradient id="paint4_linear_135_48" x1="-0.351375" y1="353.061" x2="782.755" y2="322.068" gradientUnits="userSpaceOnUse">
<stop stop-color="#036A35"/>
<stop offset="1" stop-color="#94CC23"/>
</linearGradient>
<linearGradient id="paint5_linear_135_48" x1="-0.351375" y1="353.061" x2="782.755" y2="322.068" gradientUnits="userSpaceOnUse">
<stop stop-color="#036A35"/>
<stop offset="1" stop-color="#94CC23"/>
</linearGradient>
<linearGradient id="paint6_linear_135_48" x1="-0.351375" y1="353.061" x2="782.755" y2="322.068" gradientUnits="userSpaceOnUse">
<stop stop-color="#036A35"/>
<stop offset="1" stop-color="#94CC23"/>
</linearGradient>
<linearGradient id="paint7_linear_135_48" x1="-0.351375" y1="353.061" x2="782.755" y2="322.068" gradientUnits="userSpaceOnUse">
<stop stop-color="#036A35"/>
<stop offset="1" stop-color="#94CC23"/>
</linearGradient>
<linearGradient id="paint8_linear_135_48" x1="-0.351375" y1="353.061" x2="782.755" y2="322.068" gradientUnits="userSpaceOnUse">
<stop stop-color="#036A35"/>
<stop offset="1" stop-color="#94CC23"/>
</linearGradient>
<linearGradient id="paint9_linear_135_48" x1="-0.351375" y1="353.061" x2="782.755" y2="322.068" gradientUnits="userSpaceOnUse">
<stop stop-color="#036A35"/>
<stop offset="1" stop-color="#94CC23"/>
</linearGradient>
</defs>
</svg>
