<svg width="76" height="60" viewBox="0 0 76 60" fill="none" xmlns="http://www.w3.org/2000/svg">
<path d="M36.2556 0.147966C33.8475 0.632272 31.6412 2.69057 30.7264 5.31388C30.4036 6.22868 30.3901 8.79819 30.6995 9.7937C31.2915 11.6637 32.7309 13.426 34.3318 14.2332C36.7803 15.4708 39.6861 15.2421 41.7982 13.6278C42.5516 13.0628 42.5785 13.0224 43.13 12.3094C45.4036 9.37666 45.2825 5.1659 42.861 2.46187C42.0942 1.61433 40.6682 0.67263 39.6861 0.34976C38.7713 0.0672493 37.1569 -0.0269213 36.2556 0.147966ZM39.3632 1.07622C40.5874 1.46635 41.3408 1.95066 42.1749 2.83855C43.426 4.21075 43.991 5.65021 43.991 7.56052C43.991 10.5605 42.3229 12.982 39.5247 14.0045C38.5426 14.3542 36.6592 14.3542 35.6771 14.0045C33.5112 13.2107 32.0717 11.6368 31.4125 9.34976C31.0897 8.27353 31.1838 6.16142 31.6009 5.09864C32.8386 1.85649 36.296 0.0672493 39.3632 1.07622Z" fill="black"/>
<path d="M36.2556 0.147966C33.8475 0.632272 31.6412 2.69057 30.7264 5.31388C30.4036 6.22868 30.3901 8.79819 30.6995 9.7937C31.2915 11.6637 32.7309 13.426 34.3318 14.2332C36.7803 15.4708 39.6861 15.2421 41.7982 13.6278C42.5516 13.0628 42.5785 13.0224 43.13 12.3094C45.4036 9.37666 45.2825 5.1659 42.861 2.46187C42.0942 1.61433 40.6682 0.67263 39.6861 0.34976C38.7713 0.0672493 37.1569 -0.0269213 36.2556 0.147966ZM39.3632 1.07622C40.5874 1.46635 41.3408 1.95066 42.1749 2.83855C43.426 4.21075 43.991 5.65021 43.991 7.56052C43.991 10.5605 42.3229 12.982 39.5247 14.0045C38.5426 14.3542 36.6592 14.3542 35.6771 14.0045C33.5112 13.2107 32.0717 11.6368 31.4125 9.34976C31.0897 8.27353 31.1838 6.16142 31.6009 5.09864C32.8386 1.85649 36.296 0.0672493 39.3632 1.07622Z" fill="url(#paint0_linear_1_255)"/>
<path d="M32.7578 14.8655C30.5112 15.4305 29.0717 16.0359 27.5785 17.0314C24.982 18.7668 23.9462 20.5695 23.139 24.6996C22.3453 28.7893 22.5874 31.8431 23.7847 33.1614C24.565 34.0224 25.009 34.2377 25.9641 34.2242C26.704 34.2242 27 34.1301 27.9148 33.6727C28.5202 33.3767 29.139 33.0404 29.3139 32.9462C29.5695 32.7982 29.6502 32.7982 29.6906 32.9327C29.8251 33.2825 30.7937 34.3991 31.426 34.9372C33.269 36.4709 35.0852 37.1166 37.6009 37.1301C39.2018 37.1301 40.3856 36.8879 41.7444 36.2691C42.9955 35.6906 44.6906 34.2646 45.3901 33.1884C45.6995 32.731 45.8879 32.731 46.5874 33.2018C48.0269 34.1704 49.7085 34.5606 50.556 34.1166C51.1345 33.8206 51.8744 33.0673 52.1031 32.5292C52.6412 31.3184 52.6681 31.1435 52.6681 28.991C52.6681 27.148 52.6143 26.5695 52.2915 25.0224C51.8206 22.8027 51.2556 21.0135 50.7309 20.1121C49.5336 18.0538 47.0179 16.2242 44.1928 15.3498C41.4081 14.4888 41.0986 14.435 40.8161 14.731C40.6816 14.8655 40.2377 15.1345 39.8206 15.3229C39.1749 15.6188 38.8924 15.6592 37.6681 15.6592C36.3363 15.6727 36.2018 15.6458 35.3542 15.2287C34.843 14.9866 34.4394 14.731 34.4394 14.6502C34.4394 14.4753 34.13 14.5157 32.7578 14.8655ZM34.3722 15.6054C34.4933 15.7937 35.4888 16.2377 36.2421 16.426C36.6188 16.5202 37.3587 16.5606 38.0717 16.5202C39.0942 16.4529 39.4036 16.3722 40.278 15.9417L41.3004 15.4305L42.2825 15.6592C45.6592 16.4664 48.148 17.8789 49.5874 19.8162C51.3363 22.1704 52.5471 28.7758 51.713 31.4126C51.4439 32.2601 50.6098 33.2556 49.9507 33.5112C49.6009 33.6458 48.4708 33.4036 47.7444 33.0135C46.1166 32.1794 44.139 30.3901 43.5874 29.2601C42.6323 27.296 43.4798 25.6816 45.2556 26.0852C45.8072 26.2197 47.0583 26.9462 48.3901 27.9283C48.7399 28.1704 49.1031 28.1032 49.1031 27.7803C49.1031 27.5247 48.6188 27.0673 47.7175 26.4888C47.3139 26.2197 47.0583 25.9372 47.0045 25.7085C46.3587 22.8027 44.2332 20.0314 41.7578 18.9014C40.0493 18.1211 39.3229 17.9597 37.4664 17.9731C35.9327 17.9731 35.5829 18.0135 34.6412 18.3363C33.0672 18.861 31.9641 19.5606 30.7399 20.7848C29.3273 22.2108 28.4933 23.731 28.0628 25.722C28.009 25.9507 27.6995 26.3005 27.2421 26.6637C26.7847 27.0269 26.5157 27.3498 26.5157 27.5247C26.5022 28.0359 26.8251 27.9686 27.713 27.296C29.9596 25.6144 31.4664 25.5202 32.0717 27.0404C32.2466 27.4843 32.2601 27.6996 32.139 28.2511C31.7489 30.1076 29.0986 32.5964 26.7175 33.3767C25.6681 33.7265 25.4125 33.6727 24.6323 32.9597C23.7444 32.139 23.3677 30.9417 23.3812 28.9238C23.3812 26.4484 24.2287 22.4395 25.1166 20.6502C25.6009 19.6951 27.4305 17.9327 28.5874 17.3274C29.6771 16.7623 31.4798 16.0224 32.1525 15.861C32.4081 15.8072 32.8385 15.6996 33.0942 15.6323C33.7399 15.4574 34.278 15.444 34.3722 15.6054ZM38.5157 19.1301C39.5919 19.8565 41.435 22.2377 41.435 22.8834C41.435 23.1794 39.8879 23.6637 38.8116 23.704L38.0045 23.7444L37.9641 21.2825C37.9507 19.9372 37.9641 18.8341 38.0179 18.8341C38.0583 18.8341 38.287 18.9686 38.5157 19.1301ZM35.7847 19.0628C35.7847 19.1301 35.6233 19.3184 35.4215 19.5067C34.9103 19.991 33.9282 21.3498 33.5516 22.0897C33.3767 22.4529 33.1749 22.7354 33.1211 22.7354C32.8116 22.7354 31.3453 21.565 31.3453 21.3094C31.3453 21.1211 32.5157 20.2063 33.3632 19.7489C34.426 19.157 35.7847 18.7803 35.7847 19.0628ZM41.4888 19.6413C42.5112 20.1659 43.8565 21.1614 43.8565 21.3901C43.8565 21.5516 42.6457 22.4664 42.4439 22.4664C42.3498 22.4664 42.0269 22.0493 41.7175 21.5516C41.1794 20.6502 41.0045 20.4215 40.1704 19.5336L39.7668 19.1032H40.1031C40.278 19.1032 40.9103 19.3453 41.4888 19.6413ZM37.2377 21.4843L37.1973 23.7444L36.3901 23.7175C35.2735 23.6771 34.1166 23.287 34.0628 22.9372C33.9686 22.2377 36.3229 19.2377 36.982 19.2377C37.2646 19.2377 37.2646 19.2646 37.2377 21.4843ZM31.3856 22.5067C31.6951 22.7623 32.1659 23.0987 32.4484 23.2601L32.9327 23.5426L32.7444 24.2556C32.6502 24.6323 32.556 25.0897 32.556 25.2646C32.556 25.6816 32.2601 25.7623 31.7489 25.4933C31.2377 25.2377 30.2018 25.2108 29.5157 25.426C29.2466 25.5202 29.0045 25.5606 28.9776 25.5202C28.7623 25.3049 30.3901 22.0628 30.713 22.0628C30.7803 22.0628 31.0762 22.2646 31.3856 22.5067ZM45.0538 22.7893C45.4977 23.5426 46.13 24.9686 46.1435 25.2511C46.1435 25.3588 45.8341 25.3857 45.0672 25.3319C44.2197 25.2646 43.9372 25.2915 43.6681 25.4798C43.4798 25.6009 43.278 25.6951 43.2107 25.6951C43.0897 25.6951 42.565 23.4484 42.6592 23.3543C42.9686 23.0583 44.3542 22.0762 44.4619 22.0628C44.5426 22.0628 44.8116 22.3991 45.0538 22.7893ZM42.1345 24.8341C42.2556 25.3453 42.3632 26.0852 42.3632 26.4619L42.3767 27.1749H40.1569H37.9372V25.9776C37.9372 25.3049 37.991 24.7399 38.0583 24.6996C38.1255 24.6592 38.5964 24.565 39.0942 24.4843C39.6054 24.4171 40.3856 24.2422 40.8296 24.0942C41.2735 23.9462 41.704 23.852 41.7713 23.8655C41.852 23.8789 42.0134 24.3229 42.1345 24.8341ZM34.7758 24.2153C35.0717 24.296 35.704 24.4171 36.1883 24.4574L37.0628 24.5516L37.1031 25.8565L37.1435 27.1749H35.1794H33.2287V26.4619C33.2287 25.8431 33.2959 25.4529 33.5785 24.2287C33.6457 23.8924 33.6592 23.8924 34.7758 24.2153ZM37.2646 29.3139V30.6458L36.4977 30.7399C36.0807 30.7937 35.287 30.9552 34.7354 31.0897C34.1838 31.2377 33.713 31.3319 33.6861 31.3184C33.5785 31.1973 33.2421 29.6906 33.1614 28.8834L33.0672 27.9821H35.1659H37.2646V29.3139ZM42.3767 28.6144C42.3767 29.2467 41.9596 31.278 41.7847 31.4395C41.7444 31.4798 41.3273 31.3991 40.8699 31.2377C40.3991 31.0897 39.5516 30.8879 38.9865 30.8072L37.9372 30.6323V29.3139V27.9821H40.1569H42.3767V28.6144ZM32.7847 30.861C32.9596 31.6547 32.8789 32.018 32.5157 32.018C32.4484 32.018 32.0583 32.2736 31.6681 32.5695C30.8879 33.1749 30.6323 33.1749 30.3767 32.6233C30.2287 32.3005 30.2556 32.2332 30.7803 31.7893C31.0897 31.5202 31.574 31.009 31.8296 30.6458C32.0986 30.2825 32.3812 30.0135 32.4619 30.0404C32.5426 30.0673 32.6906 30.4305 32.7847 30.861ZM44.3542 31.4664C44.7444 31.87 45.0672 32.2601 45.0672 32.3408C45.0538 32.5561 44.5829 33.0942 44.3946 33.0942C44.1524 33.0942 42.6457 31.9776 42.6457 31.7893C42.6457 31.6278 42.861 30.6323 43.009 30.1345C43.0493 29.9866 43.1435 30.0404 43.3587 30.3363C43.5202 30.5516 43.9641 31.0628 44.3542 31.4664ZM37.1838 31.722C37.2242 31.8565 37.2511 32.8251 37.2377 33.8879C37.2107 35.3812 37.1704 35.8251 37.0224 35.8789C36.6054 36.0404 33.9551 32.852 34.0628 32.3139C34.13 32.018 35.6368 31.5336 36.6188 31.4933C36.982 31.4798 37.13 31.5471 37.1838 31.722ZM39.3901 31.6816C40.2915 31.87 41.435 32.2601 41.435 32.3677C41.435 32.6099 40.6412 33.8879 40.0897 34.574C39.4708 35.3139 38.3004 36.3094 38.0448 36.3229C37.9103 36.3229 37.8968 31.6951 38.0314 31.574C38.1524 31.4395 38.3408 31.4529 39.3901 31.6816ZM33.5516 33.0538C33.8341 33.6323 34.7892 35.0045 35.3004 35.5426C36 36.2691 35.6906 36.3632 34.3453 35.8251C33 35.3005 31.3453 34.2108 31.3453 33.861C31.3453 33.6592 32.8251 32.5561 33.1076 32.5561C33.2152 32.5561 33.417 32.7848 33.5516 33.0538ZM42.8475 33.0538C43.4933 33.4843 43.722 33.6996 43.722 33.8745C43.722 33.9417 43.4394 34.2242 43.0897 34.5202C42.5381 34.9641 42.1076 35.2063 40.6009 35.9462C40.3453 36.0673 39.9551 36.0942 39.9551 35.9866C39.9551 35.9462 40.2646 35.5426 40.6412 35.0852C41.0045 34.6144 41.5022 33.8879 41.7444 33.4574C41.9731 33.0404 42.2018 32.6906 42.2421 32.6906C42.2825 32.6906 42.5516 32.852 42.8475 33.0538Z" fill="black"/>
<path d="M32.7578 14.8655C30.5112 15.4305 29.0717 16.0359 27.5785 17.0314C24.982 18.7668 23.9462 20.5695 23.139 24.6996C22.3453 28.7893 22.5874 31.8431 23.7847 33.1614C24.565 34.0224 25.009 34.2377 25.9641 34.2242C26.704 34.2242 27 34.1301 27.9148 33.6727C28.5202 33.3767 29.139 33.0404 29.3139 32.9462C29.5695 32.7982 29.6502 32.7982 29.6906 32.9327C29.8251 33.2825 30.7937 34.3991 31.426 34.9372C33.269 36.4709 35.0852 37.1166 37.6009 37.1301C39.2018 37.1301 40.3856 36.8879 41.7444 36.2691C42.9955 35.6906 44.6906 34.2646 45.3901 33.1884C45.6995 32.731 45.8879 32.731 46.5874 33.2018C48.0269 34.1704 49.7085 34.5606 50.556 34.1166C51.1345 33.8206 51.8744 33.0673 52.1031 32.5292C52.6412 31.3184 52.6681 31.1435 52.6681 28.991C52.6681 27.148 52.6143 26.5695 52.2915 25.0224C51.8206 22.8027 51.2556 21.0135 50.7309 20.1121C49.5336 18.0538 47.0179 16.2242 44.1928 15.3498C41.4081 14.4888 41.0986 14.435 40.8161 14.731C40.6816 14.8655 40.2377 15.1345 39.8206 15.3229C39.1749 15.6188 38.8924 15.6592 37.6681 15.6592C36.3363 15.6727 36.2018 15.6458 35.3542 15.2287C34.843 14.9866 34.4394 14.731 34.4394 14.6502C34.4394 14.4753 34.13 14.5157 32.7578 14.8655ZM34.3722 15.6054C34.4933 15.7937 35.4888 16.2377 36.2421 16.426C36.6188 16.5202 37.3587 16.5606 38.0717 16.5202C39.0942 16.4529 39.4036 16.3722 40.278 15.9417L41.3004 15.4305L42.2825 15.6592C45.6592 16.4664 48.148 17.8789 49.5874 19.8162C51.3363 22.1704 52.5471 28.7758 51.713 31.4126C51.4439 32.2601 50.6098 33.2556 49.9507 33.5112C49.6009 33.6458 48.4708 33.4036 47.7444 33.0135C46.1166 32.1794 44.139 30.3901 43.5874 29.2601C42.6323 27.296 43.4798 25.6816 45.2556 26.0852C45.8072 26.2197 47.0583 26.9462 48.3901 27.9283C48.7399 28.1704 49.1031 28.1032 49.1031 27.7803C49.1031 27.5247 48.6188 27.0673 47.7175 26.4888C47.3139 26.2197 47.0583 25.9372 47.0045 25.7085C46.3587 22.8027 44.2332 20.0314 41.7578 18.9014C40.0493 18.1211 39.3229 17.9597 37.4664 17.9731C35.9327 17.9731 35.5829 18.0135 34.6412 18.3363C33.0672 18.861 31.9641 19.5606 30.7399 20.7848C29.3273 22.2108 28.4933 23.731 28.0628 25.722C28.009 25.9507 27.6995 26.3005 27.2421 26.6637C26.7847 27.0269 26.5157 27.3498 26.5157 27.5247C26.5022 28.0359 26.8251 27.9686 27.713 27.296C29.9596 25.6144 31.4664 25.5202 32.0717 27.0404C32.2466 27.4843 32.2601 27.6996 32.139 28.2511C31.7489 30.1076 29.0986 32.5964 26.7175 33.3767C25.6681 33.7265 25.4125 33.6727 24.6323 32.9597C23.7444 32.139 23.3677 30.9417 23.3812 28.9238C23.3812 26.4484 24.2287 22.4395 25.1166 20.6502C25.6009 19.6951 27.4305 17.9327 28.5874 17.3274C29.6771 16.7623 31.4798 16.0224 32.1525 15.861C32.4081 15.8072 32.8385 15.6996 33.0942 15.6323C33.7399 15.4574 34.278 15.444 34.3722 15.6054ZM38.5157 19.1301C39.5919 19.8565 41.435 22.2377 41.435 22.8834C41.435 23.1794 39.8879 23.6637 38.8116 23.704L38.0045 23.7444L37.9641 21.2825C37.9507 19.9372 37.9641 18.8341 38.0179 18.8341C38.0583 18.8341 38.287 18.9686 38.5157 19.1301ZM35.7847 19.0628C35.7847 19.1301 35.6233 19.3184 35.4215 19.5067C34.9103 19.991 33.9282 21.3498 33.5516 22.0897C33.3767 22.4529 33.1749 22.7354 33.1211 22.7354C32.8116 22.7354 31.3453 21.565 31.3453 21.3094C31.3453 21.1211 32.5157 20.2063 33.3632 19.7489C34.426 19.157 35.7847 18.7803 35.7847 19.0628ZM41.4888 19.6413C42.5112 20.1659 43.8565 21.1614 43.8565 21.3901C43.8565 21.5516 42.6457 22.4664 42.4439 22.4664C42.3498 22.4664 42.0269 22.0493 41.7175 21.5516C41.1794 20.6502 41.0045 20.4215 40.1704 19.5336L39.7668 19.1032H40.1031C40.278 19.1032 40.9103 19.3453 41.4888 19.6413ZM37.2377 21.4843L37.1973 23.7444L36.3901 23.7175C35.2735 23.6771 34.1166 23.287 34.0628 22.9372C33.9686 22.2377 36.3229 19.2377 36.982 19.2377C37.2646 19.2377 37.2646 19.2646 37.2377 21.4843ZM31.3856 22.5067C31.6951 22.7623 32.1659 23.0987 32.4484 23.2601L32.9327 23.5426L32.7444 24.2556C32.6502 24.6323 32.556 25.0897 32.556 25.2646C32.556 25.6816 32.2601 25.7623 31.7489 25.4933C31.2377 25.2377 30.2018 25.2108 29.5157 25.426C29.2466 25.5202 29.0045 25.5606 28.9776 25.5202C28.7623 25.3049 30.3901 22.0628 30.713 22.0628C30.7803 22.0628 31.0762 22.2646 31.3856 22.5067ZM45.0538 22.7893C45.4977 23.5426 46.13 24.9686 46.1435 25.2511C46.1435 25.3588 45.8341 25.3857 45.0672 25.3319C44.2197 25.2646 43.9372 25.2915 43.6681 25.4798C43.4798 25.6009 43.278 25.6951 43.2107 25.6951C43.0897 25.6951 42.565 23.4484 42.6592 23.3543C42.9686 23.0583 44.3542 22.0762 44.4619 22.0628C44.5426 22.0628 44.8116 22.3991 45.0538 22.7893ZM42.1345 24.8341C42.2556 25.3453 42.3632 26.0852 42.3632 26.4619L42.3767 27.1749H40.1569H37.9372V25.9776C37.9372 25.3049 37.991 24.7399 38.0583 24.6996C38.1255 24.6592 38.5964 24.565 39.0942 24.4843C39.6054 24.4171 40.3856 24.2422 40.8296 24.0942C41.2735 23.9462 41.704 23.852 41.7713 23.8655C41.852 23.8789 42.0134 24.3229 42.1345 24.8341ZM34.7758 24.2153C35.0717 24.296 35.704 24.4171 36.1883 24.4574L37.0628 24.5516L37.1031 25.8565L37.1435 27.1749H35.1794H33.2287V26.4619C33.2287 25.8431 33.2959 25.4529 33.5785 24.2287C33.6457 23.8924 33.6592 23.8924 34.7758 24.2153ZM37.2646 29.3139V30.6458L36.4977 30.7399C36.0807 30.7937 35.287 30.9552 34.7354 31.0897C34.1838 31.2377 33.713 31.3319 33.6861 31.3184C33.5785 31.1973 33.2421 29.6906 33.1614 28.8834L33.0672 27.9821H35.1659H37.2646V29.3139ZM42.3767 28.6144C42.3767 29.2467 41.9596 31.278 41.7847 31.4395C41.7444 31.4798 41.3273 31.3991 40.8699 31.2377C40.3991 31.0897 39.5516 30.8879 38.9865 30.8072L37.9372 30.6323V29.3139V27.9821H40.1569H42.3767V28.6144ZM32.7847 30.861C32.9596 31.6547 32.8789 32.018 32.5157 32.018C32.4484 32.018 32.0583 32.2736 31.6681 32.5695C30.8879 33.1749 30.6323 33.1749 30.3767 32.6233C30.2287 32.3005 30.2556 32.2332 30.7803 31.7893C31.0897 31.5202 31.574 31.009 31.8296 30.6458C32.0986 30.2825 32.3812 30.0135 32.4619 30.0404C32.5426 30.0673 32.6906 30.4305 32.7847 30.861ZM44.3542 31.4664C44.7444 31.87 45.0672 32.2601 45.0672 32.3408C45.0538 32.5561 44.5829 33.0942 44.3946 33.0942C44.1524 33.0942 42.6457 31.9776 42.6457 31.7893C42.6457 31.6278 42.861 30.6323 43.009 30.1345C43.0493 29.9866 43.1435 30.0404 43.3587 30.3363C43.5202 30.5516 43.9641 31.0628 44.3542 31.4664ZM37.1838 31.722C37.2242 31.8565 37.2511 32.8251 37.2377 33.8879C37.2107 35.3812 37.1704 35.8251 37.0224 35.8789C36.6054 36.0404 33.9551 32.852 34.0628 32.3139C34.13 32.018 35.6368 31.5336 36.6188 31.4933C36.982 31.4798 37.13 31.5471 37.1838 31.722ZM39.3901 31.6816C40.2915 31.87 41.435 32.2601 41.435 32.3677C41.435 32.6099 40.6412 33.8879 40.0897 34.574C39.4708 35.3139 38.3004 36.3094 38.0448 36.3229C37.9103 36.3229 37.8968 31.6951 38.0314 31.574C38.1524 31.4395 38.3408 31.4529 39.3901 31.6816ZM33.5516 33.0538C33.8341 33.6323 34.7892 35.0045 35.3004 35.5426C36 36.2691 35.6906 36.3632 34.3453 35.8251C33 35.3005 31.3453 34.2108 31.3453 33.861C31.3453 33.6592 32.8251 32.5561 33.1076 32.5561C33.2152 32.5561 33.417 32.7848 33.5516 33.0538ZM42.8475 33.0538C43.4933 33.4843 43.722 33.6996 43.722 33.8745C43.722 33.9417 43.4394 34.2242 43.0897 34.5202C42.5381 34.9641 42.1076 35.2063 40.6009 35.9462C40.3453 36.0673 39.9551 36.0942 39.9551 35.9866C39.9551 35.9462 40.2646 35.5426 40.6412 35.0852C41.0045 34.6144 41.5022 33.8879 41.7444 33.4574C41.9731 33.0404 42.2018 32.6906 42.2421 32.6906C42.2825 32.6906 42.5516 32.852 42.8475 33.0538Z" fill="url(#paint1_linear_1_255)"/>
<path fill-rule="evenodd" clip-rule="evenodd" d="M47.8251 41.6368C47.0852 41.7309 46.13 41.9193 45.713 42.0807C43.2377 42.9686 41.2601 45.0538 40.4664 47.6233C40.1973 48.4978 40.1569 48.9013 40.1569 50.7175C40.1704 52.6412 40.1973 52.8834 40.5471 53.8789C41.2466 55.9238 42.2152 57.2152 43.8161 58.278C45.2287 59.2063 46.1435 59.5291 48.0269 59.7309C52.8296 60.2421 56.6502 57.8072 57.9282 53.4081C58.3184 52.0493 58.2915 49.1031 57.8744 47.7578C57.4574 46.4395 56.7982 45.2691 55.9372 44.3273C54.5247 42.7803 52.6413 41.852 50.5022 41.6368C49.991 41.583 49.4798 41.5291 49.3722 41.5022C49.2646 41.4888 48.565 41.5426 47.8251 41.6368ZM50.3004 45.0942C51.9417 45.3901 53.2332 46.426 54 48.0269C54.4036 48.861 54.417 48.9686 54.417 50.6502C54.417 52.3318 54.4036 52.426 53.9865 53.3004C53.4215 54.5112 52.6278 55.3318 51.5381 55.8565C50.704 56.2735 50.5695 56.287 49.1704 56.287C47.7982 56.287 47.6233 56.2601 46.8027 55.8699C44.3004 54.713 43.1704 51.6995 44.0717 48.6188C44.5695 46.8834 45.9686 45.5785 47.8251 45.1211C48.7265 44.9058 49.2377 44.9058 50.3004 45.0942ZM0.134521 50.6502V59.5964L5.28699 59.5695L10.426 59.5291L10.4664 58.991C10.4933 58.6951 10.4798 57.9551 10.426 57.3363L10.3318 56.2332H7.11658C5.35425 56.2332 3.90134 56.1928 3.90134 56.1255C3.90134 56.0923 3.88593 55.8741 3.86463 55.5726L3.86463 55.5726L3.86462 55.5725L3.86462 55.5724C3.85145 55.386 3.83604 55.1678 3.82062 54.9417C3.76681 54.3363 3.78026 53.5022 3.82062 53.0852L3.91479 52.3318H6.80717H9.69954L9.65918 50.6771L9.61883 49.0359L6.76681 48.9955L3.90134 48.9686L3.82062 48.6457C3.78026 48.4843 3.76681 47.6098 3.79371 46.7354L3.83407 45.1345L7.07622 45.0942L7.07974 45.0941C10.3184 45.0672 10.3319 45.0671 10.4125 44.7578C10.5202 44.3677 10.5202 42.6592 10.4125 42.1211L10.3318 41.704H5.23318H0.134521V50.6502ZM14.7982 59.5964V50.6502V41.6906L16.6547 41.7309L18.4977 41.7713L18.5381 48.9955L18.565 56.2332L21.296 56.2601L24.0134 56.3004L24.0538 57.9417L24.0942 59.5964H19.4395H14.7982ZM25.722 43.3453L25.7623 45L27.8879 45.0403L30 45.0807V52.3318V59.5964H31.8161H33.6323V52.3318V45.0807L35.7578 45.0403L37.8699 45V43.3856V41.7713L31.7758 41.7309L25.6816 41.704L25.722 43.3453ZM62.287 59.5964V50.6502V41.704H66.1614C68.852 41.7175 70.278 41.7713 70.8565 41.8924C72.713 42.2959 73.8969 43.2242 74.7175 44.9327C75.1211 45.7668 75.1345 45.8744 75.1345 47.5695C75.1345 49.3049 75.1345 49.3318 74.6637 50.2466C74.1525 51.2556 73.574 51.8879 72.6726 52.426C71.6368 53.0448 70.9641 53.1659 68.4081 53.2601L65.9865 53.3408L65.9462 56.4619L65.9193 59.5964H64.1031H62.287ZM71.704 47.4619C71.704 46.3587 71.3273 45.6726 70.4933 45.2556C69.9417 44.9731 69.6995 44.9462 67.8969 44.9327H65.9193L65.9462 47.4484L65.9865 49.9776L67.9641 50.0179C69.4843 50.0448 70.0359 50.0045 70.3184 49.8565C71.3139 49.3453 71.704 48.6592 71.704 47.4619Z" fill="url(#paint2_linear_1_255)"/>
<defs>
<linearGradient id="paint0_linear_1_255" x1="27.4834" y1="7.18302" x2="50.7925" y2="11.5168" gradientUnits="userSpaceOnUse">
<stop stop-color="#036A35"/>
<stop offset="1" stop-color="#94CC23"/>
</linearGradient>
<linearGradient id="paint1_linear_1_255" x1="16.3957" y1="25.299" x2="63.852" y2="37.5752" gradientUnits="userSpaceOnUse">
<stop stop-color="#036A35"/>
<stop offset="1" stop-color="#94CC23"/>
</linearGradient>
<linearGradient id="paint2_linear_1_255" x1="0.100892" y1="50.6502" x2="75.1308" y2="52.3253" gradientUnits="userSpaceOnUse">
<stop stop-color="#036A35"/>
<stop offset="1" stop-color="#94CC23"/>
</linearGradient>
</defs>
</svg>
