<svg width="40" height="40" viewBox="0 0 40 40" fill="none" xmlns="http://www.w3.org/2000/svg">
<g clip-path="url(#clip0_7_2411)">
<path d="M40.4745 -0.474304H-0.474121V40.4743H40.4745V-0.474304Z" fill="url(#paint0_linear_7_2411)"/>
<path d="M27.1939 18.1818L26.4034 31.4624C26.7196 31.4624 27.0358 31.6206 27.5101 31.6206L28.3006 18.1818C28.1425 18.1818 27.9844 18.1818 27.8263 18.1818C27.5101 18.0237 27.352 18.0237 27.1939 18.1818ZM11.8579 18.0237L12.8065 31.6206C13.1227 31.6206 13.4389 31.6206 13.9132 31.4624L13.1227 18.1818C12.9646 18.1818 12.6484 18.1818 12.4903 18.1818C12.1741 18.0237 12.016 18.0237 11.8579 18.0237ZM34.6247 24.8221C34.6247 22.1344 33.0437 19.9209 30.8302 18.8142C29.8816 13.5968 25.4547 9.80237 20.2374 9.80237C15.02 9.80237 10.5931 13.7549 9.64446 18.8142C7.27292 19.9209 5.69189 22.1344 5.69189 24.9802C5.69189 28.6166 8.53774 31.4625 12.1741 31.7787L11.3836 18.8142C12.3322 14.7036 15.9686 11.5415 20.2374 11.5415C24.5061 11.5415 27.9844 14.5455 29.0911 18.498L28.1425 31.6206C31.7789 31.4624 34.6247 28.4585 34.6247 24.8221Z" fill="white"/>
</g>
<defs>
<linearGradient id="paint0_linear_7_2411" x1="-0.492482" y1="19.9977" x2="40.4916" y2="19.7744" gradientUnits="userSpaceOnUse">
<stop stop-color="#036A35"/>
<stop offset="1" stop-color="#94CC23"/>
</linearGradient>
<clipPath id="clip0_7_2411">
<rect width="40" height="40" fill="white"/>
</clipPath>
</defs>
</svg>
