<svg width="40" height="40" viewBox="0 0 40 40" fill="none" xmlns="http://www.w3.org/2000/svg">
<g opacity="0.7">
<g clip-path="url(#clip0_7_2415)">
<path d="M40.4745 -0.474304H-0.474121V40.4743H40.4745V-0.474304Z" fill="url(#paint0_linear_7_2415)"/>
<path d="M34.1504 7.58893H27.1938V32.8854H34.1504V7.58893Z" fill="white"/>
<path d="M36.9964 11.2253H35.2573V11.8577H36.9964V11.2253ZM37.787 32.8854H34.4668V7.58893H37.787V32.8854Z" fill="white"/>
<path d="M29.4074 10.2767H25.4549C25.2968 10.2767 25.1387 10.4348 25.1387 10.5929C25.1387 10.751 25.2968 10.9091 25.4549 10.9091H29.4074C29.5656 10.9091 29.7237 10.751 29.7237 10.5929C29.7237 10.4348 29.5656 10.2767 29.4074 10.2767Z" fill="white"/>
<path d="M28.6167 8.37946H25.1385C24.9804 8.37946 24.8223 8.53756 24.8223 8.69566C24.8223 8.85376 24.9804 9.01187 25.1385 9.01187H28.6167C28.7748 9.01187 28.9329 8.85376 28.9329 8.69566C29.091 8.53756 28.9329 8.37946 28.6167 8.37946Z" fill="white"/>
<path d="M22.1347 7.58893H15.1782V32.8854H22.1347V7.58893Z" fill="white"/>
<path d="M24.9802 11.2253H23.2411V11.8577H24.9802V11.2253ZM25.6126 32.8854H22.2925V7.58893H25.6126V32.8854Z" fill="white"/>
<path d="M9.96043 7.58893H3.00391V32.8854H9.96043V7.58893Z" fill="white"/>
<path d="M12.8065 11.2253H11.0674V11.8577H12.8065V11.2253ZM13.597 32.8854H10.2769V7.58893H13.597V32.8854Z" fill="white"/>
<path d="M16.4431 10.2767H12.4905C12.3324 10.2767 12.1743 10.4348 12.1743 10.5929C12.1743 10.751 12.3324 10.9091 12.4905 10.9091H16.4431C16.6012 10.9091 16.7593 10.751 16.7593 10.5929C16.7593 10.4348 16.6012 10.2767 16.4431 10.2767Z" fill="white"/>
<path d="M15.8106 8.37946H12.3323C12.1742 8.37946 12.0161 8.53756 12.0161 8.69566C12.0161 8.85376 12.1742 9.01187 12.3323 9.01187H15.8106C15.9687 9.01187 16.1268 8.85376 16.1268 8.69566C16.1268 8.53756 15.9687 8.37946 15.8106 8.37946Z" fill="white"/>
</g>
</g>
<defs>
<linearGradient id="paint0_linear_7_2415" x1="-0.492482" y1="19.9977" x2="40.4916" y2="19.7744" gradientUnits="userSpaceOnUse">
<stop stop-color="#036A35"/>
<stop offset="1" stop-color="#94CC23"/>
</linearGradient>
<clipPath id="clip0_7_2415">
<rect width="40" height="40" fill="white"/>
</clipPath>
</defs>
</svg>
