<svg width="40" height="40" viewBox="0 0 40 40" fill="none" xmlns="http://www.w3.org/2000/svg">
<g clip-path="url(#clip0_7_2430)">
<path d="M40.4745 -0.474304H-0.474121V40.4743H40.4745V-0.474304Z" fill="url(#paint0_linear_7_2430)"/>
<path d="M21.0281 19.2885C21.0281 18.498 21.6605 18.0237 22.2929 18.0237C23.0834 18.0237 23.5577 18.6561 23.5577 19.2885C23.5577 20.079 22.9253 20.5533 22.2929 20.5533C21.5024 20.7115 21.0281 20.079 21.0281 19.2885ZM10.2771 22.7668C9.9609 27.1937 13.2811 30.83 17.7079 31.1462C22.1348 31.4624 25.7712 28.1423 26.0874 23.7154C26.4036 19.2885 23.0834 15.6522 18.6565 15.336C14.2297 15.0198 10.5933 18.3399 10.2771 22.7668ZM33.6763 19.9209C32.7277 14.0711 28.1427 9.01185 21.8186 8.69564C13.4392 8.06323 7.90556 14.5454 7.58936 21.6601C8.37987 16.1265 13.2811 12.1739 18.8147 12.4901C23.8739 12.8063 27.9846 16.6008 28.7751 21.502C31.621 20.5533 30.9886 20.8696 33.6763 19.9209Z" fill="white"/>
</g>
<defs>
<linearGradient id="paint0_linear_7_2430" x1="-0.492482" y1="19.9977" x2="40.4916" y2="19.7744" gradientUnits="userSpaceOnUse">
<stop stop-color="#036A35"/>
<stop offset="1" stop-color="#94CC23"/>
</linearGradient>
<clipPath id="clip0_7_2430">
<rect width="40" height="40" fill="white"/>
</clipPath>
</defs>
</svg>
