<svg width="40" height="40" viewBox="0 0 40 40" fill="none" xmlns="http://www.w3.org/2000/svg">
<g clip-path="url(#clip0_7_2435)">
<path d="M40.4745 -0.474304H-0.474121V40.4743H40.4745V-0.474304Z" fill="url(#paint0_linear_7_2435)"/>
<path d="M4.74627 21.1039V20.1805L8.8202 13.7346H9.49013V15.165H9.03747L5.95939 20.0356V20.108H11.4456V21.1039H4.74627ZM9.1099 23.0051V20.8232V20.3932V13.7346H10.1782V23.0051H9.1099ZM16.1657 23.1318C15.4837 23.1318 14.9028 22.9462 14.423 22.575C13.9432 22.2008 13.5765 21.6592 13.323 20.95C13.0695 20.2378 12.9428 19.3778 12.9428 18.3698C12.9428 17.368 13.0695 16.5124 13.323 15.8033C13.5795 15.0911 13.9477 14.5479 14.4275 14.1737C14.9103 13.7965 15.4898 13.6079 16.1657 13.6079C16.8417 13.6079 17.4196 13.7965 17.8994 14.1737C18.3822 14.5479 18.7504 15.0911 19.0039 15.8033C19.2604 16.5124 19.3887 17.368 19.3887 18.3698C19.3887 19.3778 19.2619 20.2378 19.0084 20.95C18.7549 21.6592 18.3883 22.2008 17.9085 22.575C17.4286 22.9462 16.8477 23.1318 16.1657 23.1318ZM16.1657 22.136C16.8417 22.136 17.3668 21.81 17.741 21.1582C18.1152 20.5064 18.3023 19.5769 18.3023 18.3698C18.3023 17.5671 18.2163 16.8836 18.0443 16.3193C17.8753 15.755 17.6308 15.325 17.3109 15.0292C16.9941 14.7335 16.6123 14.5856 16.1657 14.5856C15.4958 14.5856 14.9722 14.916 14.595 15.5769C14.2178 16.2348 14.0292 17.1658 14.0292 18.3698C14.0292 19.1726 14.1137 19.8546 14.2827 20.4159C14.4517 20.9772 14.6946 21.4042 15.0114 21.6969C15.3313 21.9896 15.7161 22.136 16.1657 22.136ZM24.1325 23.1318C23.4505 23.1318 22.8696 22.9462 22.3898 22.575C21.91 22.2008 21.5433 21.6592 21.2898 20.95C21.0363 20.2378 20.9096 19.3778 20.9096 18.3698C20.9096 17.368 21.0363 16.5124 21.2898 15.8033C21.5463 15.0911 21.9145 14.5479 22.3943 14.1737C22.8771 13.7965 23.4565 13.6079 24.1325 13.6079C24.8085 13.6079 25.3864 13.7965 25.8662 14.1737C26.349 14.5479 26.7172 15.0911 26.9707 15.8033C27.2272 16.5124 27.3555 17.368 27.3555 18.3698C27.3555 19.3778 27.2287 20.2378 26.9752 20.95C26.7217 21.6592 26.3551 22.2008 25.8753 22.575C25.3954 22.9462 24.8145 23.1318 24.1325 23.1318ZM24.1325 22.136C24.8085 22.136 25.3336 21.81 25.7078 21.1582C26.082 20.5064 26.2691 19.5769 26.2691 18.3698C26.2691 17.5671 26.1831 16.8836 26.0111 16.3193C25.8421 15.755 25.5976 15.325 25.2777 15.0292C24.9609 14.7335 24.5791 14.5856 24.1325 14.5856C23.4626 14.5856 22.939 14.916 22.5618 15.5769C22.1846 16.2348 21.996 17.1658 21.996 18.3698C21.996 19.1726 22.0805 19.8546 22.2495 20.4159C22.4185 20.9772 22.6614 21.4042 22.9782 21.6969C23.2981 21.9896 23.6829 22.136 24.1325 22.136ZM33.2038 13.7346L35.956 21.5385H36.0646L38.8168 13.7346H39.9937L36.5897 23.0051H35.4309L32.0269 13.7346H33.2038Z" fill="white"/>
</g>
<defs>
<linearGradient id="paint0_linear_7_2435" x1="-0.492482" y1="19.9977" x2="40.4916" y2="19.7744" gradientUnits="userSpaceOnUse">
<stop stop-color="#036A35"/>
<stop offset="1" stop-color="#94CC23"/>
</linearGradient>
<clipPath id="clip0_7_2435">
<rect width="40" height="40" fill="white"/>
</clipPath>
</defs>
</svg>
