<svg width="40" height="40" viewBox="0 0 40 40" fill="none" xmlns="http://www.w3.org/2000/svg">
<g clip-path="url(#clip0_7_2441)">
<path d="M40.0492 0H-0.0986328V40.1478H40.0492V0Z" fill="url(#paint0_linear_7_2441)"/>
<path d="M5.81285 33.5468C5.81285 33.9409 6.00989 34.6306 7.24142 34.6306C7.88181 34.6306 8.62073 34.4828 8.62073 33.7439C8.62073 33.202 8.12812 33.1035 7.3892 32.9064L6.65029 32.7586C5.56654 32.5123 4.53206 32.266 4.53206 30.7882C4.53206 30.0493 4.92615 28.7192 7.09364 28.7192C9.1626 28.7192 9.70447 30.0493 9.70447 30.8867H8.37443C8.32516 30.5912 8.22664 29.9015 6.99511 29.9015C6.45324 29.9015 5.81285 30.0985 5.81285 30.6897C5.81285 31.2316 6.2562 31.3301 6.5025 31.3793L8.12812 31.7734C9.06408 32.0197 9.90152 32.3646 9.90152 33.5961C9.90152 35.6158 7.83255 35.8128 7.24142 35.8128C4.77837 35.8128 4.38428 34.3843 4.38428 33.5961H5.81285V33.5468Z" fill="white"/>
<path d="M13.2021 33.6453H10.5913V32.4138H13.2021V33.6453Z" fill="white"/>
<path d="M16.8475 32.1675C16.7983 31.872 16.6998 31.5271 15.9608 31.5271C15.2219 31.5271 15.1727 31.7735 15.1727 32.0198C15.1727 32.8079 18.2761 32.2168 18.2761 34.0887C18.2761 35.5173 16.8968 35.8129 16.1086 35.8129C14.9756 35.8129 13.7441 35.4188 13.6948 34.0887H15.0249C15.0249 34.5321 15.2712 34.8276 16.1086 34.8276C16.7983 34.8276 16.9461 34.4828 16.9461 34.335C16.9461 33.4976 13.8426 34.138 13.8426 32.2661C13.8426 31.5271 14.286 30.5912 15.8623 30.5912C16.8475 30.5912 17.9805 30.8375 18.0791 32.2168H16.8475V32.1675Z" fill="white"/>
<path d="M23.4977 34.1872C23.1529 35.3695 22.1677 35.7635 21.3302 35.7635C19.9509 35.7635 18.8672 35.0739 18.8672 33.0542C18.8672 32.4631 19.0642 30.5419 21.2317 30.5419C22.2169 30.5419 23.547 30.9852 23.547 33.3005V33.4975H20.148C20.1972 33.8916 20.2465 34.7291 21.3302 34.7291C21.6751 34.7291 22.0692 34.532 22.1677 34.1872H23.4977ZM22.2169 32.6601C22.1184 31.8719 21.6258 31.6256 21.2317 31.6256C20.5913 31.6256 20.2958 32.0197 20.1972 32.6601H22.2169Z" fill="white"/>
<path d="M24.4335 30.6404H25.6651V31.5271C25.9114 31.0345 26.2562 30.5419 27.0444 30.5419C27.1429 30.5419 27.1922 30.5419 27.2907 30.5419V31.8719C27.1922 31.8719 27.0444 31.8719 26.8966 31.8719C25.8621 31.8719 25.7143 32.5123 25.7143 33.0542V35.665H24.3843V30.6404H24.4335Z" fill="white"/>
<path d="M29.4092 30.0493H28.0791V28.8177H29.4092V30.0493ZM29.4092 30.6404V35.6158H28.0791V30.6404H29.4092Z" fill="white"/>
<path d="M34.926 34.1872C34.5811 35.3695 33.5959 35.7635 32.7585 35.7635C31.3792 35.7635 30.2954 35.0739 30.2954 33.0542C30.2954 32.4631 30.4925 30.5419 32.6599 30.5419C33.6452 30.5419 34.9752 30.9852 34.9752 33.3005V33.4975H31.5762C31.6255 33.8916 31.6747 34.7291 32.7585 34.7291C33.1033 34.7291 33.4974 34.532 33.5959 34.1872H34.926ZM33.6452 32.6601C33.5466 31.8719 33.054 31.6256 32.6599 31.6256C32.0195 31.6256 31.724 32.0197 31.6255 32.6601H33.6452Z" fill="white"/>
<path d="M28.128 3.49756H28.8176V6.94583H28.0787L26.6994 4.48278V6.94583H26.0098V3.49756H26.7487L28.128 5.91135V3.49756Z" fill="white"/>
<path d="M32.0196 4.0887H30.197V4.82761H31.8719V5.41875H30.197V6.30545H32.1182V6.89658H29.5073V3.4483H32.0196V4.0887Z" fill="white"/>
<path d="M32.4136 3.49756H33.2018C33.6451 5.36948 33.6944 5.61579 33.7436 6.00987C33.7929 5.66505 33.8421 5.32022 34.2362 3.49756H34.9751C35.3692 5.36948 35.4185 5.56652 35.4678 6.00987C35.517 5.66505 35.5663 5.36948 36.0096 3.49756H36.7485L35.7633 6.94583H35.0737C34.7288 5.27096 34.6796 4.92613 34.5318 4.28574C34.4333 4.92613 34.384 5.17244 33.9899 6.94583H33.3003L32.4136 3.49756Z" fill="white"/>
<path d="M20.0984 14.0394C20.2072 14.0394 20.2955 13.9512 20.2955 13.8424C20.2955 13.7335 20.2072 13.6453 20.0984 13.6453C19.9896 13.6453 19.9014 13.7335 19.9014 13.8424C19.9014 13.9512 19.9896 14.0394 20.0984 14.0394Z" fill="white"/>
<path d="M17.7337 16.8966C17.8425 16.8966 17.9307 16.8084 17.9307 16.6995C17.9307 16.5907 17.8425 16.5025 17.7337 16.5025C17.6248 16.5025 17.5366 16.5907 17.5366 16.6995C17.5366 16.8084 17.6248 16.8966 17.7337 16.8966Z" fill="white"/>
<path d="M16.1575 20.0493C16.2663 20.0493 16.3545 19.9611 16.3545 19.8523C16.3545 19.7434 16.2663 19.6552 16.1575 19.6552C16.0487 19.6552 15.9604 19.7434 15.9604 19.8523C15.9604 19.9611 16.0487 20.0493 16.1575 20.0493Z" fill="white"/>
<path d="M22.5613 18.4729C22.6701 18.4729 22.7583 18.3847 22.7583 18.2759C22.7583 18.1671 22.6701 18.0789 22.5613 18.0789C22.4525 18.0789 22.3643 18.1671 22.3643 18.2759C22.3643 18.3847 22.4525 18.4729 22.5613 18.4729Z" fill="white"/>
<path d="M27.8324 16.1084L20.1969 9.11332C20.0984 9.0148 19.9014 9.0148 19.8028 9.11332L12.1674 16.1084C12.0688 16.2069 12.0688 16.3054 12.0688 16.4532C12.1181 16.5517 12.2166 16.6503 12.3644 16.6503H14.1378V25.5665C14.1378 25.7143 14.2856 25.8621 14.4334 25.8621H25.5664C25.7142 25.8621 25.862 25.7143 25.862 25.5665V16.6503H27.6354C27.7339 16.6503 27.8817 16.5517 27.9309 16.4532C27.9802 16.3547 27.9309 16.2069 27.8324 16.1084ZM17.2413 25.8128V21.3793L16.4531 20.5912C16.3546 20.6404 16.256 20.6404 16.1575 20.6404C15.7142 20.6404 15.3693 20.2956 15.3693 19.8522C15.3693 19.4089 15.7142 19.0641 16.1575 19.0641C16.6009 19.0641 16.9457 19.4089 16.9457 19.8522C16.9457 19.9508 16.8964 20.0985 16.8472 20.1971L17.7339 21.0838C17.7831 21.133 17.8324 21.2315 17.8324 21.2808V25.8128H17.2413ZM18.522 25.8128V17.9803L17.9802 17.4384C17.8817 17.4877 17.8324 17.4877 17.7339 17.4877C17.2905 17.4877 16.9457 17.1429 16.9457 16.6995C16.9457 16.2562 17.2905 15.9113 17.7339 15.9113C18.1772 15.9113 18.522 16.2562 18.522 16.6995C18.522 16.8473 18.4728 16.9458 18.4235 17.0444L19.0147 17.6355C19.0639 17.6847 19.1132 17.7833 19.1132 17.8325V25.7636L18.522 25.8128ZM19.8028 25.8128V14.5813C19.5073 14.4828 19.3102 14.1872 19.3102 13.8424C19.3102 13.399 19.6551 13.0542 20.0984 13.0542C20.5418 13.0542 20.8866 13.399 20.8866 13.8424C20.8866 14.1872 20.6895 14.4335 20.394 14.5813V25.8128H19.8028ZM21.0836 25.8128V19.4581C21.0836 19.3596 21.1329 19.3104 21.1821 19.2611L21.8225 18.6207C21.7733 18.5222 21.7733 18.4237 21.7733 18.3251C21.7733 17.8818 22.1181 17.537 22.5615 17.537C23.0048 17.537 23.3496 17.8818 23.3496 18.3251C23.3496 18.7685 23.0048 19.1133 22.5615 19.1133C22.4629 19.1133 22.3644 19.1133 22.2659 19.0641L21.6748 19.5567V25.7636L21.0836 25.8128ZM23.99 22.2168C23.8915 22.2168 23.793 22.2168 23.6945 22.1675L22.9063 22.9557V25.8128H22.3152V22.8572C22.3152 22.7586 22.3644 22.7094 22.4137 22.6601L23.3004 21.7734C23.2511 21.6749 23.2019 21.5764 23.2019 21.4286C23.2019 20.9852 23.5467 20.6404 23.99 20.6404C24.4334 20.6404 24.7782 20.9852 24.7782 21.4286C24.7782 21.8227 24.4334 22.2168 23.99 22.2168Z" fill="white"/>
<path d="M23.99 21.6257C24.0988 21.6257 24.1871 21.5374 24.1871 21.4286C24.1871 21.3198 24.0988 21.2316 23.99 21.2316C23.8812 21.2316 23.793 21.3198 23.793 21.4286C23.793 21.5374 23.8812 21.6257 23.99 21.6257Z" fill="white"/>
</g>
<defs>
<linearGradient id="paint0_linear_7_2441" x1="-0.116635" y1="20.0716" x2="40.066" y2="19.8527" gradientUnits="userSpaceOnUse">
<stop stop-color="#036A35"/>
<stop offset="1" stop-color="#94CC23"/>
</linearGradient>
<clipPath id="clip0_7_2441">
<rect width="40" height="40" fill="white"/>
</clipPath>
</defs>
</svg>
