<svg width="40" height="40" viewBox="0 0 40 40" fill="none" xmlns="http://www.w3.org/2000/svg">
<g clip-path="url(#clip0_7_2463)">
<path d="M40.1478 0H0V40.1478H40.1478V0Z" fill="url(#paint0_linear_7_2463)"/>
<path d="M11.0836 32.9064H28.9162C32.3152 30.2463 34.4827 26.1576 34.4827 21.5271C34.4827 13.5468 28.0295 7.09357 20.0492 7.09357C12.0689 7.09357 5.56641 13.5468 5.56641 21.5271C5.56641 26.1576 7.73389 30.2955 11.0836 32.9064Z" stroke="white" stroke-width="1.26064" stroke-miterlimit="10"/>
<path d="M29.7046 28.9655C29.8524 28.8177 29.9509 28.6206 30.0494 28.4728" stroke="white" stroke-width="1.26064" stroke-miterlimit="10"/>
<path d="M31.5272 25.5665C31.872 24.5812 32.1183 23.4975 32.1676 22.3645C32.6109 15.665 27.537 9.85216 20.8375 9.40881C14.138 8.96546 8.3252 14.0394 7.88185 20.7389C7.73406 23.0049 8.22667 25.1231 9.16263 26.995" stroke="white" stroke-width="1.26064" stroke-miterlimit="10" stroke-dasharray="1.29 1.29"/>
<path d="M9.95068 28.4236C10.0492 28.6206 10.197 28.7684 10.2955 28.9162" stroke="white" stroke-width="1.26064" stroke-miterlimit="10"/>
<path d="M16.207 31.1822C16.4533 30.197 18.8671 21.0345 19.1134 20C18.2267 20.5911 17.3893 21.133 16.5519 21.6749L16.5026 21.6256C16.6504 21.1822 16.8474 20.7389 16.9952 20.2955C17.7341 18.3744 18.473 16.5024 19.212 14.5813C19.2612 14.3842 19.3105 14.3349 19.3105 14.3349C19.3105 14.3349 22.3154 13.3497 23.744 12.8571C23.0543 14.4335 22.3647 16.0098 21.675 17.6354C22.6602 17.0936 23.6947 16.5024 24.6307 16.0098C24.6307 16.0098 24.5814 16.0591 24.5814 16.1083C24.3351 16.5517 24.0888 16.9458 23.8425 17.3891C23.0051 18.867 22.1676 20.3448 21.2809 21.8226C21.1331 22.1182 16.4041 30.8374 16.207 31.1822Z" fill="white"/>
</g>
<defs>
<linearGradient id="paint0_linear_7_2463" x1="-0.018002" y1="20.0716" x2="40.1646" y2="19.8527" gradientUnits="userSpaceOnUse">
<stop stop-color="#036A35"/>
<stop offset="1" stop-color="#94CC23"/>
</linearGradient>
<clipPath id="clip0_7_2463">
<rect width="40" height="40" fill="white"/>
</clipPath>
</defs>
</svg>
