<svg width="40" height="40" viewBox="0 0 40 40" fill="none" xmlns="http://www.w3.org/2000/svg">
<g clip-path="url(#clip0_7_2474)">
<path d="M40.0492 0H-0.0986328V40.1478H40.0492V0Z" fill="url(#paint0_linear_7_2474)"/>
<path d="M31.7733 5.36945H25.1724V27.734H31.7733V5.36945Z" fill="white"/>
<path d="M35.2708 5.32019H32.0688V27.734H35.2708V5.32019Z" fill="white"/>
<path d="M34.5812 3.94087V4.13792V4.2857H34.729H35.1231V5.22166H25.2709V3.94087H34.5812ZM35.2216 3.79309H25.1724V5.36945H35.2709V3.79309H35.2216ZM34.729 4.13792V3.94087H35.1231V4.13792H34.729Z" fill="white"/>
<path d="M8.81793 36.1576H7.88197V32.0689L6.99527 36.1576H6.01005L5.12335 32.0689V36.1576H4.08887V31.2808H5.5667L6.4534 35.1231L7.3401 31.2808H8.81793V36.1576Z" fill="white"/>
<path d="M11.6751 36.0591C11.2318 37.3891 11.084 37.5862 10.2958 37.5862C10.148 37.5862 10.0003 37.5862 9.85247 37.5862V36.8472C9.90174 36.8472 9.951 36.8472 10.0495 36.8472C10.3943 36.8472 10.5914 36.798 10.6899 36.3054L9.35986 32.5123H10.3943L11.1825 35.1724L11.9214 32.5123H12.9067L11.6751 36.0591Z" fill="white"/>
<path d="M17.4878 34.4335C17.4878 35.7143 16.6996 36.2561 15.4681 36.2561C15.0247 36.2561 14.3351 36.1576 13.941 35.665C13.6947 35.3694 13.5961 34.9753 13.5469 34.4827V31.2315H14.5814V34.3842C14.5814 35.0739 14.9754 35.3694 15.4681 35.3694C16.1577 35.3694 16.4533 35.0246 16.4533 34.4335V31.2315H17.4878V34.4335Z" fill="white"/>
<path d="M19.2612 33.0541C19.4582 32.7586 19.7045 32.4138 20.3449 32.4138C21.1331 32.4138 21.8227 33.0049 21.8227 34.2857C21.8227 35.2709 21.3794 36.2069 20.2956 36.2069C19.6552 36.2069 19.4089 35.862 19.2612 35.665V37.5369H18.3252V32.5123H19.2119V33.0541H19.2612ZM20.0986 35.4679C20.6897 35.4679 20.8868 34.8276 20.8868 34.3842C20.8868 33.7931 20.6897 33.3005 20.0986 33.3005C19.4582 33.3005 19.3104 33.8916 19.3104 34.4827C19.2612 34.9261 19.5075 35.4679 20.0986 35.4679Z" fill="white"/>
<path d="M23.498 36.1576H22.562V31.2808H23.498V36.1576Z" fill="white"/>
<path d="M25.4189 32.1182H24.4829V31.2315H25.4189V32.1182ZM25.4189 32.5123V36.1084H24.4829V32.5123H25.4189Z" fill="white"/>
<path d="M29.5569 36.1576H28.6209V33.9901C28.6209 33.7438 28.6209 33.3005 27.9805 33.3005C27.5372 33.3005 27.2416 33.596 27.2416 34.1379V36.2069H26.3057V32.5123H27.1924V33.0541C27.3401 32.8571 27.5865 32.4138 28.2761 32.4138C28.9658 32.4138 29.5076 32.8078 29.5076 33.6453V36.1576H29.5569Z" fill="white"/>
<path d="M31.4286 36.1576H30.4927V31.2808H31.4286V33.8916L32.6109 32.5123H33.7932L32.5124 33.9409L33.8424 36.1576H32.7094L31.872 34.6305L31.4286 34.9753V36.1576Z" fill="white"/>
<path d="M34.0889 31.8719H33.9411V31.2808H33.6948V31.133H34.286V31.2808H34.0397V31.8719H34.0889Z" fill="white"/>
<path d="M35.1232 31.8719H34.9754V31.2808L34.8276 31.8719H34.6798L34.5321 31.2808V31.8719H34.3843V31.133H34.6306L34.7784 31.7241L34.9261 31.133H35.1725V31.8719H35.1232Z" fill="white"/>
<path d="M5.76362 17.734C5.76362 15.4187 5.76362 13.1527 5.76362 10.8374C5.76362 9.60588 6.65032 8.71918 7.88184 8.66992C10.4927 8.66992 13.1035 8.66992 15.7144 8.66992C16.9459 8.66992 17.8326 9.60588 17.8326 10.8374C17.8326 11.4285 17.8326 12.0197 17.8326 12.6108C17.8326 13.1034 17.3892 13.399 16.9459 13.1527C16.7488 13.0542 16.6503 12.8571 16.6503 12.6108C16.6503 12.0689 16.6503 11.5271 16.6503 10.9852C16.6503 10.197 16.207 9.80293 15.4188 9.85219C15.2217 9.85219 15.0247 9.90145 14.8277 9.90145C14.5321 9.90145 14.3843 10.0985 14.3843 10.3448C14.335 11.0837 13.8917 11.4778 13.1528 11.4778C12.2168 11.4778 11.2809 11.4778 10.3449 11.4778C9.7045 11.4778 9.21189 11.0345 9.16263 10.3941C9.16263 10.0492 8.96559 9.90145 8.62076 9.90145C8.37445 9.90145 8.12815 9.85219 7.83258 9.85219C7.29071 9.85219 6.89662 10.2463 6.84736 10.7881C6.84736 10.8374 6.84736 10.8867 6.84736 10.9852C6.84736 15.5172 6.84736 20 6.84736 24.532C6.84736 25.3202 7.19219 25.665 7.98037 25.665C10.4927 25.665 12.9557 25.665 15.4681 25.665C16.2562 25.665 16.6011 25.3202 16.6011 24.532C16.6011 23.9901 16.6011 23.399 16.6011 22.8571C16.6011 22.5123 16.8474 22.266 17.1429 22.266C17.4878 22.266 17.7833 22.463 17.7833 22.8079C17.7833 23.5468 17.8326 24.2857 17.7341 25.0246C17.6355 26.1083 16.7488 26.8473 15.6158 26.8473C13.4976 26.8473 11.3794 26.8473 9.31041 26.8473C8.67002 26.8473 8.02963 26.8965 7.43849 26.798C6.40401 26.6502 5.71436 25.7635 5.71436 24.729C5.76362 22.3645 5.76362 20.0492 5.76362 17.734ZM10.1479 9.85219C10.1479 9.99997 10.1971 10.1478 10.1971 10.2463C10.1971 10.4433 10.2956 10.4926 10.4434 10.4926C11.3301 10.4926 12.2661 10.4926 13.1528 10.4926C13.2513 10.4926 13.3498 10.4433 13.3991 10.3448C13.4483 10.197 13.4483 10.0492 13.4483 9.85219C12.3153 9.85219 11.2316 9.85219 10.1479 9.85219Z" fill="white"/>
<path d="M15.3202 15.3202C15.4187 15.3202 15.5665 15.3202 15.665 15.3694C17.1921 15.4187 18.7192 15.468 20.2956 15.5172C20.3941 15.5172 20.4926 15.5172 20.5911 15.5665C20.7882 15.5665 20.8867 15.665 20.8867 15.8621C20.8867 16.0591 20.8375 16.2069 20.6404 16.2561C20.3941 16.2561 20.1478 16.2561 19.9015 16.2561C18.3744 16.3054 16.8473 16.3547 15.2217 16.4039C15.3695 16.5517 15.468 16.6502 15.5665 16.7488C15.8128 16.9951 15.8128 17.3891 15.6158 17.5862C15.3695 17.8325 15.0246 17.8325 14.7291 17.5369C14.2857 17.1428 13.8916 16.6995 13.4976 16.3054C13.202 16.0098 13.202 15.7143 13.4976 15.4187C13.8916 15.0246 14.335 14.5813 14.7291 14.1872C15.0246 13.8916 15.3695 13.8916 15.6158 14.1379C15.8621 14.3842 15.8128 14.729 15.5665 15.0246C15.468 15.1231 15.3695 15.1724 15.271 15.2217C15.271 15.2709 15.271 15.2709 15.3202 15.3202Z" fill="white"/>
<path d="M19.1135 19.2119C19.0643 19.1133 18.9658 19.0641 18.8672 18.9655C18.7194 18.7685 18.7194 18.5222 18.8672 18.3252C19.015 18.1774 19.3106 18.1281 19.5076 18.3252C19.8524 18.67 20.1973 19.0148 20.5421 19.3596C20.6899 19.5567 20.6899 19.803 20.5421 19.9508C20.1973 20.2956 19.8524 20.6404 19.5076 20.9853C19.3106 21.1823 19.0643 21.133 18.8672 20.9853C18.7194 20.8375 18.7194 20.5419 18.8672 20.3449C18.9658 20.2463 19.0643 20.1971 19.1135 20.0986C19.1135 20.0986 19.1135 20.0493 19.0643 20.0493C18.7687 20.0493 18.4731 20.0493 18.1776 20.0493C16.946 20.0986 15.7145 20.1478 14.5323 20.1971C14.3352 20.1971 14.0889 20.2463 13.8919 20.2463C13.4978 20.2463 13.2515 20.0493 13.2515 19.6552C13.2515 19.3104 13.4978 19.0641 13.8919 19.0641C15.1234 19.1133 16.3549 19.1626 17.5864 19.2119C18.1283 19.2119 18.6209 19.2119 19.1135 19.2119Z" fill="white"/>
</g>
<defs>
<linearGradient id="paint0_linear_7_2474" x1="-0.116635" y1="20.0716" x2="40.066" y2="19.8527" gradientUnits="userSpaceOnUse">
<stop stop-color="#036A35"/>
<stop offset="1" stop-color="#94CC23"/>
</linearGradient>
<clipPath id="clip0_7_2474">
<rect width="40" height="40" fill="white"/>
</clipPath>
</defs>
</svg>
