<svg width="40" height="40" viewBox="0 0 40 40" fill="none" xmlns="http://www.w3.org/2000/svg">
<g clip-path="url(#clip0_7_2240)">
<path d="M40.4745 -0.474304H-0.474121V40.4743H40.4745V-0.474304Z" fill="url(#paint0_linear_7_2240)"/>
<path d="M32.0947 11.6996H30.988C30.6718 11.6996 30.0394 11.6996 29.407 11.6996H28.4584H25.2963H24.3477C23.8734 11.6996 23.241 11.6996 22.9248 11.6996H21.8181C21.5019 11.6996 21.3438 11.8577 21.3438 12.1739V21.9763C21.3438 22.2925 21.5019 22.4506 21.8181 22.4506H22.9248C23.241 22.4506 23.3991 22.2925 23.3991 21.9763V14.3874C23.5572 14.3874 23.8734 14.3874 24.0315 14.3874V21.502V22.9249V33.6759C24.0315 33.9921 24.3477 34.3083 24.6639 34.3083H26.0868C26.403 34.3083 26.7192 33.9921 26.7192 33.6759V23.5573H27.5098V33.6759C27.5098 33.9921 27.826 34.3083 28.1422 34.3083H29.5651C29.8813 34.3083 30.1975 33.9921 30.1975 33.6759V22.9249V21.502V14.3874C30.5137 14.3874 30.6718 14.3874 30.988 14.3874V22.1344C30.988 22.4506 31.1461 22.6087 31.4623 22.6087H32.569C32.8853 22.6087 33.0434 22.4506 33.0434 22.1344V12.1739C32.569 11.8577 32.2528 11.6996 32.0947 11.6996Z" fill="white"/>
<path d="M26.8773 10.9091C28.3002 10.9091 29.4069 9.80236 29.4069 8.37944C29.4069 6.95651 28.3002 5.84979 26.8773 5.84979C25.4544 5.84979 24.3477 6.95651 24.3477 8.37944C24.3477 9.80236 25.4544 10.9091 26.8773 10.9091Z" fill="white"/>
<path d="M18.8143 6.0079H7.74707V34.3083H18.8143V6.0079Z" fill="white"/>
<path d="M14.2295 5.69171V34.4664H15.02V5.69171" fill="url(#paint1_linear_7_2240)"/>
<path d="M17.8655 10.4348H15.9683V11.2253H17.8655V10.4348Z" fill="url(#paint2_linear_7_2240)"/>
</g>
<defs>
<linearGradient id="paint0_linear_7_2240" x1="-0.492482" y1="19.9977" x2="40.4916" y2="19.7744" gradientUnits="userSpaceOnUse">
<stop stop-color="#036A35"/>
<stop offset="1" stop-color="#94CC23"/>
</linearGradient>
<linearGradient id="paint1_linear_7_2240" x1="14.2291" y1="20.0774" x2="15.0204" y2="20.0773" gradientUnits="userSpaceOnUse">
<stop stop-color="#036A35"/>
<stop offset="1" stop-color="#94CC23"/>
</linearGradient>
<linearGradient id="paint2_linear_7_2240" x1="15.9674" y1="10.83" x2="17.866" y2="10.8052" gradientUnits="userSpaceOnUse">
<stop stop-color="#036A35"/>
<stop offset="1" stop-color="#94CC23"/>
</linearGradient>
<clipPath id="clip0_7_2240">
<rect width="40" height="40" fill="white"/>
</clipPath>
</defs>
</svg>
