<svg width="40" height="40" viewBox="0 0 40 40" fill="none" xmlns="http://www.w3.org/2000/svg">
<g clip-path="url(#clip0_7_2248)">
<path d="M40.4745 -0.474304H-0.474121V40.4743H40.4745V-0.474304Z" fill="url(#paint0_linear_7_2248)"/>
<path d="M13.7554 10.5929L24.3483 29.0909C24.5064 29.4071 24.9807 29.5652 25.2969 29.4071C25.6131 29.249 25.7712 28.7747 25.6131 28.4585L15.0202 9.80236C14.8621 9.48616 14.3878 9.32806 14.0716 9.48616C13.7554 9.80236 13.5973 10.2767 13.7554 10.5929Z" fill="white"/>
<path d="M12.9648 14.0711H16.285C16.6012 14.0711 16.7593 13.913 16.9174 13.7549L18.4984 10.9091C18.6565 10.5929 18.6565 10.1186 18.1822 9.96046C17.866 9.80236 17.3917 9.80236 17.2336 10.2767L15.8107 12.6482H12.9648C12.4905 12.6482 12.1743 12.9644 12.1743 13.4387C12.1743 13.7549 12.4905 14.0711 12.9648 14.0711Z" fill="white"/>
<path d="M22.2927 28.6166L23.7156 26.2451H26.5614C27.0357 26.2451 27.352 25.9289 27.352 25.4545C27.352 24.9802 27.0357 24.664 26.5614 24.664H23.2413C22.9251 24.664 22.767 24.8221 22.6089 24.9802L21.0278 27.8261C20.8697 28.1423 21.0278 28.6166 21.3441 28.7747C21.6603 29.0909 21.9765 28.9328 22.2927 28.6166Z" fill="white"/>
<path d="M24.3481 9.80236L13.7552 28.3004C13.5971 28.6166 13.5971 29.0909 14.0714 29.249C14.3876 29.4071 14.8619 29.4071 15.02 28.9328L25.6129 10.4348C25.771 10.1186 25.6129 9.64426 25.2967 9.48616C24.9805 9.32806 24.5062 9.48616 24.3481 9.80236Z" fill="white"/>
<path d="M26.4037 12.6482H23.5579L22.135 10.1186C21.9768 9.80235 21.5025 9.64425 21.1863 9.80235C20.8701 9.96045 20.712 10.4348 20.8701 10.751L22.4512 13.5968C22.6093 13.7549 22.7674 13.913 23.0836 13.913H26.4037C26.878 13.913 27.1942 13.5968 27.1942 13.1225C27.1942 12.9644 26.878 12.6482 26.4037 12.6482Z" fill="white"/>
<path d="M18.3403 27.8261L16.7593 24.9802C16.6012 24.8221 16.4431 24.664 16.1269 24.664H12.9648C12.4905 24.664 12.1743 24.9802 12.1743 25.4545C12.1743 25.9289 12.4905 26.2451 12.9648 26.2451H15.8107L17.2336 28.6166C17.3917 28.9328 17.866 29.0909 18.1822 28.9328C18.4984 28.7747 18.6565 28.3004 18.3403 27.8261Z" fill="white"/>
<path d="M9.01219 20.2371L30.3561 20.079C30.8304 20.079 31.1466 19.7628 31.1466 19.2885C31.1466 18.8142 30.8304 18.498 30.3561 18.498L9.01219 18.8142C8.53789 18.8142 8.22168 19.1304 8.22168 19.6047C8.37978 19.9209 8.69599 20.2371 9.01219 20.2371Z" fill="white"/>
<path d="M11.6999 22.7668L13.2809 19.9209C13.439 19.7628 13.439 19.4466 13.2809 19.1304L11.6999 16.2846C11.5418 15.9684 11.0675 15.8103 10.7513 15.9684C10.4351 16.1265 10.277 16.6008 10.4351 16.917L11.858 19.2885L10.4351 21.8182C10.277 22.1344 10.4351 22.6087 10.7513 22.7668C11.0675 23.2411 11.5418 23.083 11.6999 22.7668Z" fill="white"/>
<path d="M28.9332 21.8182L27.5103 19.4466L28.9332 16.917C29.0913 16.6008 29.0913 16.1265 28.617 15.9684C28.3008 15.8103 27.8265 15.9684 27.6684 16.2846L26.0873 19.1304C25.9292 19.2885 25.9292 19.6047 26.0873 19.9209L27.8265 22.7668C27.9846 23.083 28.4589 23.2411 28.7751 23.083C29.0913 22.6087 29.0913 22.1344 28.9332 21.8182Z" fill="white"/>
<path d="M16.9175 19.4466C16.9175 19.4466 17.8661 18.9723 18.0242 18.498C18.1823 18.0237 18.1823 17.0751 18.1823 17.0751C18.1823 17.0751 18.9728 17.5494 19.4471 17.5494C20.0795 17.5494 20.7119 17.2332 20.7119 17.2332C20.7119 17.2332 20.8701 18.0237 21.0282 18.498C21.1863 18.9723 22.1349 19.4466 22.1349 19.4466C22.1349 19.4466 21.3444 19.921 21.0282 20.2372C20.7119 20.5534 20.5538 21.502 20.5538 21.502C20.5538 21.502 19.9214 21.3439 19.4471 21.3439C18.9728 21.3439 18.0242 21.6601 18.0242 21.6601C18.0242 21.6601 18.0242 20.7115 17.708 20.2372C17.708 19.921 16.9175 19.4466 16.9175 19.4466Z" fill="white"/>
<mask id="mask0_7_2248" style="mask-type:luminance" maskUnits="userSpaceOnUse" x="13" y="9" width="11" height="16">
<path d="M20.8701 21.502C20.8701 21.502 20.3957 21.3439 19.9214 21.3439L21.6606 24.1897C22.1349 24.1897 22.7673 24.1897 23.2416 24.0316L21.1863 20.5533C21.0282 21.0276 20.8701 21.502 20.8701 21.502ZM16.9175 13.7549C16.7594 13.913 16.6013 14.0711 16.2851 14.0711H15.8108L18.1823 18.1818C18.3404 17.7075 18.3404 16.917 18.3404 16.917C18.3404 16.917 18.9728 17.3913 19.4471 17.3913L17.0756 13.1225L16.9175 13.7549ZM13.9135 9.64425C13.7554 9.96045 13.5973 10.2767 13.7554 10.5929L15.0203 12.6482H15.8108L16.2851 11.8577L15.0203 9.80235L14.704 9.48615C14.5459 9.64425 14.2297 9.64425 13.9135 9.64425Z" fill="white"/>
</mask>
<g mask="url(#mask0_7_2248)">
<path d="M23.2414 9.48615H13.5972V24.1897H23.2414V9.48615Z" fill="url(#paint1_linear_7_2248)"/>
</g>
<mask id="mask1_7_2248" style="mask-type:luminance" maskUnits="userSpaceOnUse" x="12" y="9" width="7" height="6">
<path d="M17.2336 10.1186L16.285 11.8577L15.8107 12.6482H15.0202H12.9648C12.4905 12.6482 12.1743 12.9644 12.1743 13.4387C12.1743 13.913 12.4905 14.2293 12.9648 14.2293H16.285C16.6012 14.2293 16.7593 14.0711 16.9174 13.913L17.0755 13.5968L18.4984 11.0672C18.6565 10.751 18.4984 10.2767 18.1822 10.1186L17.866 9.96048C17.5498 9.80237 17.3917 9.96048 17.2336 10.1186Z" fill="white"/>
</mask>
<g mask="url(#mask1_7_2248)">
<path d="M18.6565 9.80237H12.1743V14.0711H18.6565V9.80237Z" fill="url(#paint2_linear_7_2248)"/>
</g>
<mask id="mask2_7_2248" style="mask-type:luminance" maskUnits="userSpaceOnUse" x="16" y="9" width="10" height="16">
<path d="M16.127 24.0316C16.6013 24.0316 17.2337 24.1897 17.708 24.1897L19.4471 21.3439C18.9728 21.502 18.3404 21.6601 18.3404 21.6601C18.3404 21.6601 18.3404 21.0277 18.1823 20.5533L16.127 24.0316ZM19.9214 17.5494C20.3957 17.5494 21.0281 17.2332 21.0281 17.2332C21.0281 17.2332 21.1862 17.8656 21.3443 18.1818L23.7159 14.0711H23.2416C22.9254 14.0711 22.7673 13.913 22.6092 13.7549L22.4511 13.4387L19.9214 17.5494ZM24.3483 9.80236L23.2416 11.8577L23.5578 12.6482H24.3483L25.6131 10.5929C25.7712 10.2767 25.7712 9.96046 25.455 9.80236C25.1388 9.80236 24.8226 9.64426 24.5064 9.64426L24.3483 9.80236Z" fill="white"/>
</mask>
<g mask="url(#mask2_7_2248)">
<path d="M25.7712 9.64426H16.127V24.3478H25.7712V9.64426Z" fill="url(#paint3_linear_7_2248)"/>
</g>
<mask id="mask3_7_2248" style="mask-type:luminance" maskUnits="userSpaceOnUse" x="20" y="9" width="8" height="6">
<path d="M21.1863 9.96047C21.0282 10.1186 20.8701 10.1186 20.8701 10.2767V10.9091L22.293 13.4387L22.4511 13.7549C22.6092 13.913 22.7674 14.0711 23.0836 14.0711H26.4037C26.878 14.0711 27.1942 13.7549 27.1942 13.2806C27.1942 12.9644 26.878 12.6482 26.4037 12.6482H24.3484H23.5579L23.0836 11.8577L22.1349 10.1186C21.9768 9.96047 21.8187 9.80237 21.5025 9.80237L21.1863 9.96047Z" fill="white"/>
</mask>
<g mask="url(#mask3_7_2248)">
<path d="M27.1942 9.80237H20.8701V14.0711H27.1942V9.80237Z" fill="url(#paint4_linear_7_2248)"/>
</g>
<mask id="mask4_7_2248" style="mask-type:luminance" maskUnits="userSpaceOnUse" x="8" y="18" width="24" height="3">
<path d="M9.01219 18.6561C8.53789 18.6561 8.22168 18.9723 8.22168 19.4466C8.22168 19.9209 8.53789 20.2371 9.01219 20.2371H11.3837L11.858 19.4466L11.3837 18.6561H9.01219ZM13.1229 18.6561L13.281 18.9723C13.4391 19.1304 13.4391 19.4466 13.281 19.7628L13.1229 20.079H17.8659C17.5497 19.7628 16.9173 19.2885 16.9173 19.2885C16.9173 19.2885 17.5497 18.9723 18.0241 18.498L13.1229 18.6561ZM21.3442 18.6561C21.6604 18.9723 22.2928 19.2885 22.2928 19.2885C22.2928 19.2885 21.6604 19.7628 21.3442 20.079H26.0873L25.9292 19.7628C25.7711 19.6047 25.7711 19.2885 25.9292 18.9723L26.0873 18.6561H21.3442ZM27.9845 18.6561L27.5102 19.4466L27.9845 20.2371H30.5142C30.9885 20.2371 31.3047 19.9209 31.3047 19.4466C31.3047 18.9723 30.9885 18.6561 30.5142 18.6561H27.9845Z" fill="white"/>
</mask>
<g mask="url(#mask4_7_2248)">
<path d="M31.1467 18.6561H8.37988V20.2372H31.1467V18.6561Z" fill="url(#paint5_linear_7_2248)"/>
</g>
<mask id="mask5_7_2248" style="mask-type:luminance" maskUnits="userSpaceOnUse" x="10" y="15" width="4" height="9">
<path d="M10.7512 15.9684C10.435 16.1265 10.2769 16.6008 10.435 16.917L11.3836 18.6561L11.8579 19.4466L11.3836 20.2372L10.2769 21.9763C10.1188 22.2925 10.2769 22.7668 10.5931 22.9249L11.0674 23.083C11.3836 23.083 11.5417 22.9249 11.6998 22.7668L13.1227 20.2372L13.2808 19.921C13.4389 19.7629 13.4389 19.4466 13.2808 19.1304L13.1227 18.8142L11.6998 16.4427C11.5417 16.2846 11.3836 16.1265 11.0674 16.1265L10.7512 15.9684Z" fill="white"/>
</mask>
<g mask="url(#mask5_7_2248)">
<path d="M13.597 15.9684H10.2769V23.083H13.597V15.9684Z" fill="url(#paint6_linear_7_2248)"/>
</g>
<mask id="mask6_7_2248" style="mask-type:luminance" maskUnits="userSpaceOnUse" x="25" y="15" width="5" height="8">
<path d="M27.6684 16.1265L26.2454 18.6561L26.0873 18.9723C25.9292 19.1304 25.9292 19.4466 26.0873 19.7628L26.2454 20.079L27.6684 22.4506C27.8265 22.6087 27.9846 22.7668 28.3008 22.7668L28.617 22.6087C28.9332 22.4506 29.0913 21.9763 28.9332 21.6601L27.9846 19.9209L27.5103 19.1304L27.9846 18.3399L28.9332 16.6008C29.0913 16.2846 29.0913 15.8103 28.617 15.6522L28.3008 15.8103C27.9846 15.8103 27.8265 15.9684 27.6684 16.1265Z" fill="white"/>
</mask>
<g mask="url(#mask6_7_2248)">
<path d="M29.2494 15.8103H25.9292V22.9249H29.2494V15.8103Z" fill="url(#paint7_linear_7_2248)"/>
</g>
<mask id="mask7_7_2248" style="mask-type:luminance" maskUnits="userSpaceOnUse" x="16" y="17" width="7" height="5">
<path d="M18.1822 18.3399L18.0241 18.6561L17.866 18.8142C17.5498 19.1304 16.7593 19.6047 16.7593 19.6047C16.7593 19.6047 17.3917 19.9209 17.7079 20.3952L17.866 20.5533L18.0241 20.7114C18.1822 21.1858 18.1822 21.8182 18.1822 21.8182C18.1822 21.8182 18.6565 21.6601 19.2889 21.502H19.6051H19.7632C20.2375 21.502 20.7118 21.6601 20.7118 21.6601C20.7118 21.6601 20.8699 21.1858 21.0281 20.7114L21.1862 20.3952V20.2371C21.5024 19.9209 22.1348 19.4466 22.1348 19.4466C22.1348 19.4466 21.5024 19.1304 21.1862 18.8142L21.0281 18.6561L20.8699 18.3399C20.7118 17.8656 20.5537 17.3913 20.5537 17.3913C20.5537 17.3913 20.0794 17.7075 19.447 17.7075H19.2889H19.1308C18.6565 17.5494 18.0241 17.2332 18.0241 17.2332C18.0241 17.2332 18.3403 17.8656 18.1822 18.3399Z" fill="white"/>
</mask>
<g mask="url(#mask7_7_2248)">
<path d="M22.4511 17.0751H16.9175V21.6601H22.4511V17.0751Z" fill="url(#paint8_linear_7_2248)"/>
</g>
<mask id="mask8_7_2248" style="mask-type:luminance" maskUnits="userSpaceOnUse" x="24" y="28" width="2" height="2">
<path d="M24.3479 29.0909C24.506 29.249 24.6641 29.4071 24.9804 29.4071L25.2966 29.249C25.4547 29.0909 25.6128 28.9328 25.6128 28.7747C25.1385 28.7747 24.506 28.6166 24.0317 28.6166L24.3479 29.0909Z" fill="white"/>
</mask>
<g mask="url(#mask8_7_2248)">
<path d="M25.771 28.6166H24.1899V29.4071H25.771V28.6166Z" fill="url(#paint9_linear_7_2248)"/>
</g>
<mask id="mask9_7_2248" style="mask-type:luminance" maskUnits="userSpaceOnUse" x="20" y="28" width="3" height="2">
<path d="M21.1863 28.9328L21.5025 29.0909C21.8187 29.0909 21.9768 28.9328 22.1349 28.7747L22.293 28.6166C21.8187 28.6166 21.3444 28.6166 20.8701 28.6166C20.8701 28.6166 21.0282 28.7747 21.1863 28.9328Z" fill="white"/>
</mask>
<g mask="url(#mask9_7_2248)">
<path d="M22.293 28.3004H20.8701V28.9328H22.293V28.3004Z" fill="url(#paint10_linear_7_2248)"/>
</g>
<mask id="mask10_7_2248" style="mask-type:luminance" maskUnits="userSpaceOnUse" x="13" y="28" width="3" height="2">
<path d="M13.5972 28.4585C13.4391 28.7747 13.5972 29.249 13.9134 29.4071L14.2296 29.5652C14.5458 29.5652 14.7039 29.4071 14.862 29.249L15.3363 28.4585C14.862 28.3004 14.2296 28.3004 13.5972 28.4585Z" fill="white"/>
</mask>
<g mask="url(#mask10_7_2248)">
<path d="M15.3362 28.3004H13.439V29.4071H15.3362V28.3004Z" fill="url(#paint11_linear_7_2248)"/>
</g>
<mask id="mask11_7_2248" style="mask-type:luminance" maskUnits="userSpaceOnUse" x="16" y="28" width="3" height="1">
<path d="M17.0755 28.6166C17.2336 28.9328 17.3917 28.9328 17.7079 28.9328L18.0241 28.7747C18.1822 28.6166 18.3403 28.4585 18.3403 28.1423C17.866 28.1423 17.2336 28.1423 16.7593 28.1423L17.0755 28.6166Z" fill="white"/>
</mask>
<g mask="url(#mask11_7_2248)">
<path d="M18.4985 28.3004H16.9175V28.9328H18.4985V28.3004Z" fill="url(#paint12_linear_7_2248)"/>
</g>
</g>
<defs>
<linearGradient id="paint0_linear_7_2248" x1="-0.492482" y1="19.9977" x2="40.4916" y2="19.7744" gradientUnits="userSpaceOnUse">
<stop stop-color="#036A35"/>
<stop offset="1" stop-color="#94CC23"/>
</linearGradient>
<linearGradient id="paint1_linear_7_2248" x1="18.4188" y1="9.26413" x2="18.4188" y2="24.2629" gradientUnits="userSpaceOnUse">
<stop stop-color="white"/>
<stop offset="1" stop-color="white"/>
</linearGradient>
<linearGradient id="paint2_linear_7_2248" x1="15.4153" y1="9.29051" x2="15.4153" y2="24.3118" gradientUnits="userSpaceOnUse">
<stop stop-color="white"/>
<stop offset="1" stop-color="white"/>
</linearGradient>
<linearGradient id="paint3_linear_7_2248" x1="20.9362" y1="9.23683" x2="20.9362" y2="24.2346" gradientUnits="userSpaceOnUse">
<stop stop-color="white"/>
<stop offset="1" stop-color="white"/>
</linearGradient>
<linearGradient id="paint4_linear_7_2248" x1="23.996" y1="9.29051" x2="23.996" y2="24.3118" gradientUnits="userSpaceOnUse">
<stop stop-color="white"/>
<stop offset="1" stop-color="white"/>
</linearGradient>
<linearGradient id="paint5_linear_7_2248" x1="19.7063" y1="9.26306" x2="19.7063" y2="24.3237" gradientUnits="userSpaceOnUse">
<stop stop-color="white"/>
<stop offset="1" stop-color="white"/>
</linearGradient>
<linearGradient id="paint6_linear_7_2248" x1="11.9361" y1="9.10441" x2="11.9361" y2="24.1032" gradientUnits="userSpaceOnUse">
<stop stop-color="white"/>
<stop offset="1" stop-color="white"/>
</linearGradient>
<linearGradient id="paint7_linear_7_2248" x1="27.5561" y1="9.16089" x2="27.5561" y2="24.165" gradientUnits="userSpaceOnUse">
<stop stop-color="white"/>
<stop offset="1" stop-color="white"/>
</linearGradient>
<linearGradient id="paint8_linear_7_2248" x1="19.7214" y1="9.16032" x2="19.7214" y2="24.1836" gradientUnits="userSpaceOnUse">
<stop stop-color="white"/>
<stop offset="1" stop-color="white"/>
</linearGradient>
<linearGradient id="paint9_linear_7_2248" x1="24.9392" y1="45.1719" x2="24.9392" y2="28.3323" gradientUnits="userSpaceOnUse">
<stop stop-color="white"/>
<stop offset="1" stop-color="white"/>
</linearGradient>
<linearGradient id="paint10_linear_7_2248" x1="21.6089" y1="44.8158" x2="21.6089" y2="28.2497" gradientUnits="userSpaceOnUse">
<stop stop-color="white"/>
<stop offset="1" stop-color="white"/>
</linearGradient>
<linearGradient id="paint11_linear_7_2248" x1="14.421" y1="45.1065" x2="14.421" y2="28.4244" gradientUnits="userSpaceOnUse">
<stop stop-color="white"/>
<stop offset="1" stop-color="white"/>
</linearGradient>
<linearGradient id="paint12_linear_7_2248" x1="17.7146" y1="45.012" x2="17.7146" y2="28.3136" gradientUnits="userSpaceOnUse">
<stop stop-color="white"/>
<stop offset="1" stop-color="white"/>
</linearGradient>
<clipPath id="clip0_7_2248">
<rect width="40" height="40" fill="white"/>
</clipPath>
</defs>
</svg>
