<svg width="40" height="40" viewBox="0 0 40 40" fill="none" xmlns="http://www.w3.org/2000/svg">
<g clip-path="url(#clip0_7_2326)">
<path d="M40.4745 -0.474304H-0.474121V40.4743H40.4745V-0.474304Z" fill="url(#paint0_linear_7_2326)"/>
<path d="M4.03999 12.3592V3.86364H9.16721V4.77625H5.06875V7.64683H8.90172V8.55944H5.06875V11.4466H9.23358V12.3592H4.03999Z" fill="white"/>
<path d="M29.249 6.95651H19.921C18.6561 6.95651 17.7075 7.90513 17.7075 9.16995V32.4111C17.7075 33.6759 18.6561 34.6245 19.921 34.6245H22.1344V36.8379H23.2411V34.6245H25.6127V36.8379H26.7194V34.6245H28.9328C30.1976 34.6245 31.1463 33.6759 31.1463 32.4111V9.16995C31.4625 7.90513 30.5138 6.95651 29.249 6.95651Z" fill="white"/>
<path d="M15.3363 15.6522C15.3363 16.917 15.3363 18.3399 15.1782 19.6047C13.9134 20.079 12.6486 20.5533 11.5419 20.8696L10.5933 21.1858L11.5419 21.502C12.8067 21.9763 14.0715 22.4506 15.1782 22.7668C15.1782 24.0316 15.1782 25.4545 15.3363 26.7194V27.8261L15.9688 27.0356C16.7593 25.9288 17.5498 24.9802 18.3403 23.8735C19.6051 24.1897 20.8699 24.664 22.1348 24.9802L23.0834 25.2964L22.451 24.5059C21.6605 23.3992 21.028 22.2925 20.2375 21.3439C21.028 20.2371 21.6605 19.1304 22.451 18.1818L23.0834 17.3913H22.1348C20.8699 17.7075 19.6051 18.1818 18.3403 18.498C17.5498 17.3913 16.7593 16.4427 15.9688 15.336L15.3363 14.5454V15.6522Z" fill="white"/>
<path d="M15.3361 15.6522H15.0199C15.0199 16.917 15.0199 18.3399 14.8618 19.6047H15.178L15.0199 19.2885C13.9132 19.6047 12.6484 20.079 11.3836 20.5534L10.4349 20.8696L9.48633 21.1858L11.3836 21.8182C12.6484 22.2925 13.9132 22.7668 15.0199 23.083L15.178 22.7668H14.8618C14.8618 24.0316 14.8618 25.4545 15.0199 26.7194V27.8261V28.9328L16.2847 27.3518C17.0753 26.2451 17.8658 25.2964 18.6563 24.1897L18.3401 24.0316L18.182 24.3478C19.4468 24.664 20.7116 25.1383 21.9764 25.4545L22.9251 25.7707L23.8737 26.087L22.767 24.3478C21.9764 23.2411 21.344 22.1344 20.5535 21.1858L20.2373 21.3439L20.5535 21.502C21.344 20.3953 21.9764 19.2885 22.767 18.3399L23.3994 17.5494L24.0318 16.7589L21.9764 17.3913C20.7116 17.7075 19.4468 18.1818 18.182 18.498L18.3401 18.8142L18.6563 18.6561C17.8658 17.5494 17.0753 16.6008 16.2847 15.4941L15.6523 14.3873L15.0199 13.5968V15.6522H15.3361H15.6523C16.4428 16.7589 17.2334 17.7075 18.0239 18.8142L18.182 18.9723H18.4982C19.763 18.6561 21.0278 18.1818 22.2927 17.8656C21.5021 18.9723 20.8697 20.079 20.0792 21.0277L19.9211 21.1858L20.0792 21.3439C20.8697 22.4506 21.5021 23.5573 22.2927 24.5059L22.9251 25.2964L23.2413 25.1383L23.3994 24.8221L22.4508 24.5059C21.1859 24.1897 19.9211 23.7154 18.6563 23.3992H18.3401L18.0239 23.7154C17.2334 24.8221 16.4428 25.7707 15.6523 26.8775C15.6523 25.6126 15.6523 24.1897 15.4942 22.9249V22.6087L15.3361 22.4506C14.0713 21.9763 12.8065 21.502 11.6998 21.1858C12.9646 20.7115 14.2294 20.2371 15.3361 19.9209L15.4942 19.7628V19.4466C15.4942 18.1818 15.4942 16.7589 15.6523 15.4941L15.3361 15.6522Z" fill="url(#paint1_linear_7_2326)"/>
</g>
<defs>
<linearGradient id="paint0_linear_7_2326" x1="-0.492482" y1="19.9977" x2="40.4916" y2="19.7744" gradientUnits="userSpaceOnUse">
<stop stop-color="#036A35"/>
<stop offset="1" stop-color="#94CC23"/>
</linearGradient>
<linearGradient id="paint1_linear_7_2326" x1="9.47981" y1="21.2639" x2="24.0379" y2="21.1887" gradientUnits="userSpaceOnUse">
<stop stop-color="#036A35"/>
<stop offset="1" stop-color="#94CC23"/>
</linearGradient>
<clipPath id="clip0_7_2326">
<rect width="40" height="40" fill="white"/>
</clipPath>
</defs>
</svg>
