<svg width="40" height="40" viewBox="0 0 40 40" fill="none" xmlns="http://www.w3.org/2000/svg">
<g clip-path="url(#clip0_7_2335)">
<path d="M40.4745 -0.474304H-0.474121V40.4743H40.4745V-0.474304Z" fill="url(#paint0_linear_7_2335)"/>
<path d="M28.3005 8.37945C29.091 7.58893 29.091 6.95652 28.7748 6.64032C28.4586 6.16601 27.6681 6.16601 26.8776 6.95652C26.087 7.74704 10.9092 22.7668 10.9092 22.7668L11.6997 24.1897L11.8578 24.3478L12.6483 23.5573L13.2807 23.2411L28.3005 8.37945Z" fill="white"/>
<path d="M28.3007 8.37945L28.4588 8.53755C28.9331 8.06324 29.0912 7.74703 29.2493 7.43083C29.4074 7.11462 29.2493 6.64032 28.9331 6.32411C28.6169 6.0079 28.3007 6.0079 27.8264 6.0079C27.3521 6.0079 27.0358 6.32411 26.5615 6.64031C25.771 7.43083 10.5932 22.4506 10.5932 22.4506L10.4351 22.6087L11.3837 24.1897L11.5418 24.3478L11.6999 24.664L12.8066 23.7154L12.6485 23.5573L12.8066 23.8735L13.439 23.5573L28.4588 8.53755L28.3007 8.37945L27.9845 8.22134L12.9647 23.083L12.4904 23.3992L11.5418 24.0316L11.6999 24.3478L12.0161 24.1897L11.858 24.0316L11.0675 22.6087L10.7513 22.7668L11.0675 22.9249C11.0675 22.9249 12.0161 21.9763 13.439 20.5534C17.7078 16.2846 26.4034 7.58893 27.0359 7.11462C27.3521 6.79842 27.6683 6.64031 27.8264 6.64031C27.9845 6.64031 28.1426 6.64032 28.3007 6.79842C28.4588 6.95652 28.4588 7.11462 28.4588 7.27273C28.4588 7.43083 28.3007 7.74703 27.8264 8.06324L28.3007 8.37945Z" fill="url(#paint1_linear_7_2335)"/>
<path d="M25.929 7.58892C26.7195 6.79841 26.5614 7.11462 26.2452 6.79841C25.929 6.48221 25.7709 5.84979 24.9804 6.64031C24.1899 7.27272 9.48633 21.8182 9.48633 21.8182L9.96064 22.9249V23.083L10.7512 22.4506L11.2255 22.1344L25.929 7.58892Z" fill="white"/>
<path d="M25.9291 7.58893L26.0872 7.74703L26.2453 7.58893C26.4034 7.43083 26.5615 7.27272 26.5615 7.27272V6.95652L26.4034 6.79842L26.2453 6.64031C26.2453 6.64031 26.0872 6.32411 25.9291 6.166C25.771 6.0079 25.6129 5.8498 25.2967 6.0079C24.9805 6.0079 24.8224 6.166 24.5062 6.48221C23.7157 7.27272 9.01211 21.8182 9.01211 21.8182L8.854 21.9763L9.32831 23.2411V23.3992L9.48642 23.8735L11.0674 22.4506L11.5418 22.1344L26.0872 7.74703L25.9291 7.58893L25.771 7.43083L11.0674 21.6601L10.5931 21.9763L9.80262 22.6087L9.96072 22.7668L10.2769 22.6087V22.4506L9.80262 21.3439L9.48642 21.8182L9.64452 21.9763C9.64452 21.9763 10.5931 21.0277 12.0161 19.7628C16.1267 15.6522 24.6643 7.27272 25.1386 6.79842C25.2967 6.64031 25.4548 6.64031 25.4548 6.64031H25.6129C25.771 6.64031 25.771 6.79842 25.9291 6.95652L26.0872 7.11462L26.2453 7.27272L26.4034 7.11462H26.2453L26.4034 6.95652H26.2453L26.4034 6.79842H26.0872V6.95652L26.2453 6.79842H25.9291H26.0872L25.9291 6.64031H26.0872L25.9291 6.48221C25.9291 6.48221 25.771 6.64031 25.6129 6.79842L25.4548 6.95652L25.9291 7.58893Z" fill="url(#paint2_linear_7_2335)"/>
<path d="M28.7749 9.96048C29.5654 9.16996 29.4073 9.48617 29.0911 9.16996C28.7749 8.85376 28.6168 8.22134 27.8263 9.01186C27.0358 9.80237 11.8579 24.8221 11.8579 24.8221L12.3322 25.9289V26.087L13.1227 25.4545L13.597 24.9802L28.7749 9.96048Z" fill="white"/>
<path d="M28.7747 9.96048L28.9328 10.1186L29.0909 9.96048C29.249 9.80238 29.4071 9.64427 29.4071 9.64427V9.32807L29.249 9.16997L29.0909 9.01186C29.0909 9.01186 28.9328 8.69566 28.7747 8.53756C28.6166 8.37945 28.4585 8.22135 28.1423 8.37945C27.8261 8.37945 27.668 8.53756 27.3518 8.85376C26.8775 9.48617 11.6996 24.5059 11.6996 24.5059L11.5415 24.664L12.0158 25.9289V26.087L12.1739 26.5613L13.4387 25.6127L13.2806 25.4546L13.4387 25.7708L13.913 25.2964L28.9328 10.4348L28.7747 9.96048L28.6166 9.80238L13.5968 24.664L13.1225 24.9802L12.332 25.6127L12.4901 25.7708L12.8063 25.6127V25.4546L12.332 24.3478L12.0158 24.5059L12.1739 24.664C12.1739 24.664 13.1225 23.7154 14.5455 22.2925C18.8142 18.0237 27.5099 9.48617 28.1423 8.85376C28.4585 8.85376 28.4585 8.85376 28.6166 8.85376H28.7747C28.9328 8.85376 28.9328 9.01186 29.0909 9.16997L29.249 9.32807H29.0909L29.249 9.16997H29.0909L29.249 9.01186H28.9328V9.16997L29.0909 9.01186H28.7747C28.7747 9.01186 28.6166 9.16997 28.4585 9.32807L28.3004 9.48617L28.7747 9.96048Z" fill="url(#paint3_linear_7_2335)"/>
<path d="M13.4387 24.5059C13.7549 24.0316 13.4387 23.083 12.4901 22.2925C11.5415 21.502 10.5929 21.1858 10.1186 21.502C9.80237 21.9763 10.1186 22.9249 11.0672 23.7154C12.0158 24.664 13.1225 24.9802 13.4387 24.5059Z" fill="white"/>
<path d="M23.2411 11.8577C22.2925 11.0672 21.3438 10.751 20.8695 11.0672L20.7114 11.3834C21.1857 11.5415 21.8181 11.8577 22.4506 12.332C23.083 13.1225 23.5573 13.7549 23.7154 14.2292C23.8735 14.2292 24.0316 14.2292 24.1897 14.0711C24.5059 13.7549 24.0316 12.6482 23.2411 11.8577Z" fill="white"/>
<path d="M16.4427 18.6561C15.4941 17.8656 14.5455 17.5494 14.0712 17.8656L13.9131 18.1818C14.3874 18.3399 15.0198 18.6561 15.6522 19.1304C16.2846 19.7629 16.7589 20.2372 16.917 20.8696C17.0751 20.8696 17.2332 20.8696 17.3913 20.7115C17.8657 20.3953 17.3913 19.4466 16.4427 18.6561Z" fill="white"/>
<path d="M25.4549 9.64426C24.5063 8.85375 23.5577 8.53754 23.0834 8.85375L22.9253 9.16995C23.3996 9.32805 24.032 9.64426 24.6644 10.1186C25.2968 10.751 25.7711 11.2253 25.9292 11.8577C26.0873 11.8577 26.2455 11.8577 26.4036 11.6996C26.7198 11.3834 26.2455 10.4348 25.4549 9.64426Z" fill="white"/>
<path d="M18.6561 16.2846C17.7075 15.4941 16.7589 15.1779 16.2846 15.4941L16.1265 15.8103C16.6008 15.9684 17.2332 16.2846 17.8656 16.7589C18.498 17.3913 18.9723 17.8656 19.1304 18.498C19.2885 18.498 19.4466 18.498 19.6047 18.3399C20.079 18.1818 19.6047 17.0751 18.6561 16.2846Z" fill="white"/>
<path d="M20.7118 14.2293C19.7632 13.4387 18.8145 13.1225 18.3402 13.4387L18.1821 13.7549C18.6564 13.913 19.2888 14.2293 19.9213 14.7036C20.5537 15.336 21.028 15.8103 21.1861 16.4427C21.3442 16.4427 21.5023 16.4427 21.6604 16.2846C22.1347 15.9684 21.6604 15.0198 20.7118 14.2293Z" fill="white"/>
<path d="M14.0711 20.8696C13.1225 20.0791 12.1739 19.7629 11.6996 20.0791L11.5415 20.5534C12.0158 20.7115 12.6482 21.0277 13.2806 21.502C13.913 22.1344 14.3874 22.6087 14.5455 23.2411C14.7036 23.2411 14.8617 23.2411 15.0198 23.083C15.336 22.7668 15.0198 21.6601 14.0711 20.8696Z" fill="white"/>
<path d="M13.1225 26.2451C13.7549 25.6127 13.1225 24.1897 11.8577 23.083C10.5929 21.9763 9.01184 21.502 8.53753 22.1344C7.90512 22.7668 4.58496 26.087 4.58496 26.087L9.01184 30.3557L13.1225 26.2451Z" fill="white"/>
<path d="M13.1225 26.2451L13.4387 26.4032C13.913 25.9288 13.7549 25.2964 13.5968 24.664C13.2806 24.0316 12.8063 23.3992 12.1739 22.7668L12.0158 22.6087C11.3834 22.1344 10.5929 21.6601 9.96046 21.502C9.32804 21.3439 8.69563 21.3439 8.22132 21.8182V21.9763V22.1344H8.53753L8.22132 21.9763H8.37943H8.53753C7.90512 22.6087 4.74306 25.9288 4.74306 25.9288L4.58496 26.0869L9.48615 30.83L13.913 26.4032L13.1225 26.2451L12.8063 26.0869L8.85374 30.0395L4.74306 26.0869L4.58496 26.2451L4.90117 26.4032C4.90117 26.4032 8.22132 23.083 8.85374 22.4506V22.1344L8.69563 21.9763L8.53753 22.1344H8.85374V21.9763L8.53753 22.1344L8.85374 22.2925V22.1344H8.53753L8.85374 22.2925C8.85374 22.1344 9.16994 22.1344 9.80235 22.2925C10.2767 22.4506 10.9091 22.7668 11.5415 23.2411L11.6996 23.3992C12.332 23.8735 12.8063 24.5059 12.9644 24.9802C13.1225 25.4545 13.1225 25.9288 12.9644 26.0869L13.1225 26.2451Z" fill="url(#paint4_linear_7_2335)"/>
<path d="M9.80233 29.5652C10.7509 28.4585 10.5928 26.5613 9.32802 25.4545C8.2213 24.1897 6.32407 24.1897 5.37545 25.2964C4.42683 26.4032 4.58494 28.3004 5.84976 29.4071C6.95648 30.5138 8.85371 30.6719 9.80233 29.5652Z" fill="white"/>
<path d="M9.80276 29.5652L10.119 29.7233C11.2257 28.4585 11.0676 26.4032 9.64466 25.1383L9.48656 24.9802C8.85415 24.3478 8.06363 24.1897 7.27312 24.1897C6.4826 24.1897 5.69209 24.5059 5.21778 25.1383L4.90158 25.2964H5.21778L4.90158 25.1383C3.79486 26.4032 3.95296 28.4585 5.37589 29.7233L5.53399 29.8814C6.3245 30.3557 7.11502 30.6719 7.90553 30.6719C8.69604 30.6719 9.48656 30.3557 9.96087 29.7233L9.80276 29.5652V29.8814H9.96087L9.80276 29.5652V29.8814H9.96087L10.119 29.7233L9.80276 29.5652V29.249L9.64466 29.4071L9.80276 29.5652L9.48656 29.249C8.69604 30.1976 7.11502 30.1976 6.0083 29.249L5.85019 29.0909C4.74347 28.1423 4.74347 26.4032 5.53399 25.4546V25.2964H5.21778L5.37589 25.4546V25.2964H5.05968L5.21778 25.4546C6.0083 24.5059 7.58932 24.5059 8.69604 25.4546L8.85415 25.6127C9.96087 26.7194 10.119 28.3004 9.32845 29.249L9.80276 29.5652Z" fill="url(#paint5_linear_7_2335)"/>
<path d="M7.58923 30.5138C7.90543 30.1976 7.58923 29.0909 6.64061 28.3004C5.69199 27.5099 4.74338 27.1937 4.42717 27.5099C4.11097 27.8261 4.42717 28.9328 5.37579 29.7233C6.1663 30.5138 7.27302 30.83 7.58923 30.5138Z" fill="white"/>
<path d="M7.589 30.5138L7.90521 30.6719C8.06331 30.5138 8.06331 30.3557 8.06331 30.0395C8.06331 29.4071 7.589 28.6166 6.79849 27.9842L6.64038 27.8261C6.16608 27.5099 5.69177 27.1937 5.21746 27.0356C5.05936 27.0356 4.74315 26.8775 4.58505 26.8775C4.42695 26.8775 4.11074 27.0356 3.95264 27.1937L4.26884 27.3518L4.11074 27.0356L4.42694 27.1937L4.26884 26.8775V27.1937V27.3518L4.58505 27.1937L4.26884 27.0356C4.11074 27.1937 4.11074 27.3518 4.11074 27.668C4.11074 28.3004 4.58505 29.0909 5.37556 29.7233L5.21746 30.0395C5.69177 30.3557 6.16608 30.6719 6.64038 30.83C6.79849 30.83 7.11469 30.9881 7.27279 30.9881C7.4309 30.9881 7.7471 30.83 7.90521 30.6719L7.589 30.5138L7.7471 30.83L7.90521 30.6719L7.589 30.5138L7.4309 30.83H7.589V30.5138L7.4309 30.83H7.589L7.90521 30.6719L7.589 30.5138L7.7471 30.1976H7.589H7.4309H7.27279C6.95659 30.1976 6.32418 30.0395 5.69177 29.4071L5.53366 29.249C5.05936 28.9328 4.74315 28.4585 4.58505 28.1423C4.58505 27.9842 4.42694 27.8261 4.42694 27.668V27.5099L4.74315 27.668L4.58505 27.5099L4.26884 27.668L4.74315 27.5099V27.3518L4.42694 27.5099H4.74315L4.42694 27.668H4.74315V27.5099L4.42694 27.668L4.58505 27.9842L4.74315 27.668H4.42694L4.58505 27.9842H4.74315C5.05936 27.9842 5.69177 28.1423 6.32418 28.7747L6.48228 28.4585C6.95659 28.7747 7.27279 29.249 7.4309 29.5652C7.4309 29.7233 7.589 29.8814 7.589 30.0395V30.1976V30.5138Z" fill="url(#paint6_linear_7_2335)"/>
<path d="M33.6761 31.1463C33.6761 31.1463 33.9923 29.8814 33.8342 28.4585C33.6761 27.8261 33.518 27.0356 33.2018 26.5613C32.8856 26.087 32.2532 25.6127 31.4627 25.4546C29.8816 24.9803 26.8777 25.4546 21.9765 27.8261C21.9765 27.8261 21.0279 28.1423 19.6049 28.4585C18.182 28.7747 16.4429 28.9328 14.7038 28.4585C13.597 28.1423 12.6484 27.668 11.8579 26.8775L12.6484 25.9289C13.2808 26.5613 14.0713 26.8775 14.8619 27.1937C16.2848 27.5099 18.0239 27.3518 19.2887 27.1937C19.9212 27.0356 20.5536 26.8775 20.8698 26.8775C21.0279 26.8775 21.186 26.7194 21.3441 26.7194H21.5022L21.6603 27.3518L21.3441 26.7194C26.2453 24.1897 29.4073 23.7154 31.6208 24.1897C32.7275 24.5059 33.6761 25.1384 34.1504 25.9289C34.9409 27.0356 35.099 28.4585 35.099 29.5652C35.099 30.672 34.9409 31.4625 34.9409 31.6206L33.6761 31.1463Z" fill="white"/>
</g>
<defs>
<linearGradient id="paint0_linear_7_2335" x1="-0.492482" y1="19.9977" x2="40.4916" y2="19.7744" gradientUnits="userSpaceOnUse">
<stop stop-color="#036A35"/>
<stop offset="1" stop-color="#94CC23"/>
</linearGradient>
<linearGradient id="paint1_linear_7_2335" x1="10.4266" y1="15.3349" x2="29.3192" y2="15.2308" gradientUnits="userSpaceOnUse">
<stop stop-color="#036A35"/>
<stop offset="1" stop-color="#94CC23"/>
</linearGradient>
<linearGradient id="paint2_linear_7_2335" x1="8.84606" y1="14.9069" x2="26.5689" y2="14.8116" gradientUnits="userSpaceOnUse">
<stop stop-color="#036A35"/>
<stop offset="1" stop-color="#94CC23"/>
</linearGradient>
<linearGradient id="paint3_linear_7_2335" x1="11.5335" y1="17.4366" x2="29.4146" y2="17.3412" gradientUnits="userSpaceOnUse">
<stop stop-color="#036A35"/>
<stop offset="1" stop-color="#94CC23"/>
</linearGradient>
<linearGradient id="paint4_linear_7_2335" x1="4.58078" y1="26.1182" x2="13.9169" y2="26.0678" gradientUnits="userSpaceOnUse">
<stop stop-color="#036A35"/>
<stop offset="1" stop-color="#94CC23"/>
</linearGradient>
<linearGradient id="paint5_linear_7_2335" x1="4.1723" y1="27.4305" x2="10.848" y2="27.393" gradientUnits="userSpaceOnUse">
<stop stop-color="#036A35"/>
<stop offset="1" stop-color="#94CC23"/>
</linearGradient>
<linearGradient id="paint6_linear_7_2335" x1="3.95079" y1="28.9326" x2="8.06503" y2="28.9102" gradientUnits="userSpaceOnUse">
<stop stop-color="#036A35"/>
<stop offset="1" stop-color="#94CC23"/>
</linearGradient>
<clipPath id="clip0_7_2335">
<rect width="40" height="40" fill="white"/>
</clipPath>
</defs>
</svg>
