<svg width="40" height="40" viewBox="0 0 40 40" fill="none" xmlns="http://www.w3.org/2000/svg">
<g clip-path="url(#clip0_7_2359)">
<path d="M41.8974 -2.52963H-1.26465V41.1067H41.8974V-2.52963Z" fill="url(#paint0_linear_7_2359)"/>
<path d="M22.1344 33.0435C17.5494 33.0435 13.913 29.5652 13.5968 24.9803H12.332C10.751 24.9803 9.48613 25.9289 9.48613 27.1937V28.9328C9.48613 29.5652 9.01183 30.0395 8.37941 30.0395H4.90115C4.26874 30.0395 3.79443 29.5652 3.79443 28.9328V27.1937C3.79443 22.7668 7.5889 19.1305 12.332 19.1305H15.1778C18.0237 15.336 23.3992 14.5455 27.1936 17.3913C27.8261 17.8656 28.4585 18.498 28.9328 19.1305H34.1502C34.7826 19.1305 35.2569 19.6048 35.2569 20.2372V23.7154C35.2569 24.3478 34.7826 24.8222 34.1502 24.8222H30.6719C30.3557 29.5652 26.5612 33.0435 22.1344 33.0435ZM12.332 23.8735H14.0711C14.3873 23.8735 14.7035 24.1897 14.7035 24.506C14.7035 28.6166 18.0237 31.9368 22.1344 31.9368C26.245 31.9368 29.5652 28.6166 29.5652 24.506C29.5652 24.1897 29.8814 23.8735 30.1976 23.8735H34.1502V20.5534H28.7747C28.6166 20.5534 28.4585 20.3953 28.3004 20.2372C25.9288 16.917 21.3438 15.9684 17.8656 18.3399C17.0751 18.8143 16.6008 19.4467 15.9683 20.2372C15.8102 20.3953 15.6521 20.5534 15.494 20.5534H12.332C8.22131 20.5534 4.90115 23.5573 4.90115 27.3518V29.0909H8.37941V27.3518C8.37941 25.4546 10.1185 23.8735 12.332 23.8735Z" fill="white"/>
<path d="M24.98 17.0751H23.8733V14.8617H19.9207V17.0751H18.814V14.2293C18.814 13.9131 19.1302 13.5969 19.4464 13.5969H24.6638C24.98 13.5969 25.2962 13.9131 25.2962 14.2293V17.0751H24.98Z" fill="white"/>
<path d="M23.8736 13.5969H22.7668V8.85377C22.7668 8.37946 22.4506 8.06325 21.9763 8.06325C21.502 8.06325 21.1858 8.37946 21.1858 8.85377V13.5969H20.0791V8.85377C20.0791 7.74705 21.0277 6.79843 22.1344 6.79843C23.2412 6.79843 24.1898 7.74705 24.1898 8.85377V13.5969H23.8736Z" fill="white"/>
<path d="M15.1779 13.5969C13.5969 13.5969 12.332 12.332 12.332 10.751C12.332 9.16997 13.5969 7.90515 15.1779 7.90515C16.2846 7.90515 17.2332 8.37946 18.0237 9.01187H20.2372C20.5534 9.01187 20.8696 9.32808 20.8696 9.64428V11.8577C20.8696 12.1739 20.5534 12.4901 20.2372 12.4901H18.0237C17.2332 13.2806 16.2846 13.5969 15.1779 13.5969ZM15.1779 9.01187C14.2293 9.01187 13.4388 9.80238 13.4388 10.751C13.4388 11.6996 14.2293 12.4901 15.1779 12.4901C15.9684 12.4901 16.917 12.0158 17.2332 11.6996C17.3913 11.5415 17.5494 11.3834 17.7075 11.3834H19.7629V10.2767H17.7075C17.5494 10.2767 17.2332 10.1186 17.2332 9.96049C17.0751 9.48618 15.9684 9.01187 15.1779 9.01187Z" fill="white"/>
<path d="M28.4583 13.5969C27.3516 13.5969 26.403 13.1225 25.6125 12.4901H23.399C23.0828 12.4901 22.7666 12.1739 22.7666 11.8577V9.64428C22.7666 9.32808 23.0828 9.01187 23.399 9.01187H25.6125C26.2449 8.37946 27.3516 7.90515 28.4583 7.90515C30.0393 7.90515 31.3042 9.16997 31.3042 10.751C31.3042 12.332 30.0393 13.5969 28.4583 13.5969ZM23.8733 11.3834H25.9287C26.0868 11.3834 26.403 11.5415 26.403 11.6996C26.7192 12.1739 27.6678 12.4901 28.4583 12.4901C29.4069 12.4901 30.1974 11.6996 30.1974 10.751C30.1974 9.80238 29.4069 9.01187 28.4583 9.01187C27.6678 9.01187 26.7192 9.48618 26.403 9.80238C26.2449 9.96049 26.0868 10.1186 25.9287 10.1186H23.8733V11.3834Z" fill="white"/>
<path d="M21.8184 29.7233C19.7631 29.7233 18.0239 27.9842 18.0239 25.9289C18.0239 24.664 18.6563 23.3992 19.9212 22.7668C20.0793 22.7668 20.0793 22.6087 20.2374 22.6087C20.2374 21.8182 20.5536 21.1858 20.8698 20.5534C21.3441 19.921 21.8184 19.2886 22.6089 18.9723C22.9251 18.8142 23.2413 18.9723 23.3994 19.1305C23.3994 19.2886 23.5575 19.4467 23.3994 19.6048C23.2413 19.921 23.2413 20.2372 23.2413 20.5534C23.2413 21.502 23.5575 22.2925 24.1899 23.083C24.5061 23.3992 24.9804 23.8735 25.1386 24.3478C25.6129 25.2965 25.6129 26.2451 25.2967 27.1937C24.8223 28.6166 23.3994 29.7233 21.8184 29.7233ZM19.7631 24.1897C18.8144 25.2965 18.9725 26.8775 20.0793 27.8261C21.186 28.7747 22.767 28.6166 23.7156 27.5099C24.348 26.7194 24.5061 25.6127 24.0318 24.664C23.8737 24.3478 23.5575 24.0316 23.2413 23.7154C22.4508 22.9249 21.9765 21.8182 21.8184 20.5534C21.6603 20.7115 21.6603 20.8696 21.5022 20.8696C20.8698 21.9763 20.8698 23.3992 21.5022 24.664C21.6603 24.8222 21.8184 25.2965 21.5022 25.4546C21.3441 25.6127 20.8698 25.7708 20.7117 25.4546C20.3955 25.2965 20.0793 24.8222 19.7631 24.1897Z" fill="white"/>
</g>
<defs>
<linearGradient id="paint0_linear_7_2359" x1="-1.284" y1="19.2861" x2="41.9155" y2="19.0533" gradientUnits="userSpaceOnUse">
<stop stop-color="#036A35"/>
<stop offset="1" stop-color="#94CC23"/>
</linearGradient>
<clipPath id="clip0_7_2359">
<rect width="40" height="40" fill="white"/>
</clipPath>
</defs>
</svg>
