<svg width="40" height="40" viewBox="0 0 40 40" fill="none" xmlns="http://www.w3.org/2000/svg">
<g clip-path="url(#clip0_7_2370)">
<path d="M40.4745 -0.474304H-0.474121V40.4743H40.4745V-0.474304Z" fill="url(#paint0_linear_7_2370)"/>
<path d="M10.2399 30.6077C9.85963 30.6017 9.4794 30.5292 9.09917 30.3904C8.71893 30.2516 8.37189 30.0177 8.05805 29.6888C7.74421 29.3569 7.49223 28.9087 7.30211 28.3444C7.11199 27.7771 7.01693 27.0649 7.01693 26.2079C7.01693 25.387 7.09389 24.6598 7.24779 24.026C7.40169 23.3893 7.62501 22.8537 7.91773 22.4191C8.21045 21.9815 8.56352 21.6496 8.97695 21.4232C9.39339 21.1969 9.86265 21.0838 10.3847 21.0838C10.9038 21.0838 11.3655 21.1879 11.7699 21.3961C12.1772 21.6013 12.5092 21.888 12.7657 22.2561C13.0222 22.6243 13.1882 23.0483 13.2636 23.5281H12.1591C12.0565 23.1117 11.8574 22.7661 11.5616 22.4915C11.2659 22.2169 10.8736 22.0796 10.3847 22.0796C9.6665 22.0796 9.10068 22.3919 8.68725 23.0166C8.27684 23.6413 8.07012 24.5179 8.0671 25.6466H8.13953C8.30852 25.3901 8.5092 25.1713 8.74157 24.9902C8.97695 24.8061 9.23647 24.6643 9.52014 24.5647C9.80381 24.4651 10.1041 24.4153 10.4209 24.4153C10.9521 24.4153 11.4379 24.5481 11.8785 24.8137C12.3191 25.0762 12.6722 25.4398 12.9377 25.9046C13.2033 26.3663 13.3361 26.8959 13.3361 27.4934C13.3361 28.0668 13.2078 28.5919 12.9513 29.0687C12.6948 29.5424 12.3342 29.9197 11.8694 30.2003C11.4077 30.4779 10.8645 30.6137 10.2399 30.6077ZM10.2399 29.6119C10.6201 29.6119 10.9611 29.5168 11.2629 29.3267C11.5677 29.1366 11.8076 28.8816 11.9826 28.5617C12.1607 28.2418 12.2497 27.8857 12.2497 27.4934C12.2497 27.1102 12.1637 26.7616 11.9917 26.4478C11.8227 26.1309 11.5888 25.8789 11.29 25.6918C10.9943 25.5047 10.6563 25.4112 10.2761 25.4112C9.9894 25.4112 9.72233 25.4685 9.47487 25.5832C9.22742 25.6948 9.01014 25.8487 8.82304 26.0449C8.63896 26.2411 8.49411 26.4659 8.38849 26.7194C8.28287 26.9698 8.23006 27.2339 8.23006 27.5115C8.23006 27.8797 8.31607 28.2237 8.48808 28.5436C8.6631 28.8635 8.90151 29.1215 9.20328 29.3176C9.50807 29.5138 9.8536 29.6119 10.2399 29.6119ZM18.0132 30.6077C17.482 30.6077 17.0037 30.5021 16.5782 30.2908C16.1527 30.0796 15.8117 29.7899 15.5552 29.4217C15.2987 29.0536 15.1584 28.6341 15.1342 28.1633H16.2206C16.2629 28.5828 16.453 28.9298 16.791 29.2045C17.132 29.4761 17.5394 29.6119 18.0132 29.6119C18.3934 29.6119 18.7314 29.5228 19.0271 29.3448C19.3259 29.1667 19.5597 28.9223 19.7287 28.6115C19.9007 28.2976 19.9867 27.943 19.9867 27.5477C19.9867 27.1434 19.8977 26.7827 19.7197 26.4659C19.5447 26.146 19.3032 25.894 18.9954 25.7099C18.6876 25.5258 18.3361 25.4323 17.9407 25.4293C17.6571 25.4263 17.3659 25.47 17.0671 25.5606C16.7683 25.6481 16.5224 25.7612 16.3293 25.9L15.2791 25.7733L15.8404 21.2105H20.6567V22.2064H16.7819L16.456 24.9404H16.5103C16.7004 24.7895 16.9388 24.6643 17.2255 24.5647C17.5122 24.4651 17.811 24.4153 18.1218 24.4153C18.6891 24.4153 19.1946 24.5511 19.6382 24.8227C20.0848 25.0913 20.4349 25.4595 20.6884 25.9272C20.9449 26.395 21.0731 26.9291 21.0731 27.5296C21.0731 28.1211 20.9403 28.6492 20.6748 29.1139C20.4122 29.5756 20.0501 29.9408 19.5884 30.2094C19.1267 30.4749 18.6016 30.6077 18.0132 30.6077ZM24.8087 25.3025C24.4254 25.3025 24.0754 25.209 23.7585 25.0219C23.4447 24.8348 23.1942 24.5843 23.0071 24.2705C22.82 23.9536 22.7265 23.6036 22.7265 23.2203C22.7265 22.8371 22.82 22.4885 23.0071 22.1747C23.1942 21.8578 23.4447 21.6058 23.7585 21.4187C24.0754 21.2316 24.4254 21.1381 24.8087 21.1381C25.1919 21.1381 25.5405 21.2316 25.8543 21.4187C26.1712 21.6058 26.4232 21.8578 26.6103 22.1747C26.7974 22.4885 26.8909 22.8371 26.8909 23.2203C26.8909 23.6036 26.7974 23.9536 26.6103 24.2705C26.4232 24.5843 26.1712 24.8348 25.8543 25.0219C25.5405 25.209 25.1919 25.3025 24.8087 25.3025ZM24.8087 24.3972C25.026 24.3972 25.2236 24.3444 25.4017 24.2388C25.5797 24.1332 25.7216 23.9913 25.8272 23.8133C25.9328 23.6352 25.9856 23.4376 25.9856 23.2203C25.9856 23.003 25.9328 22.8054 25.8272 22.6273C25.7216 22.4493 25.5797 22.3074 25.4017 22.2018C25.2236 22.0962 25.026 22.0434 24.8087 22.0434C24.5914 22.0434 24.3938 22.0962 24.2157 22.2018C24.0377 22.3074 23.8958 22.4493 23.7902 22.6273C23.6846 22.8054 23.6318 23.003 23.6318 23.2203C23.6318 23.4376 23.6846 23.6352 23.7902 23.8133C23.8958 23.9913 24.0377 24.1332 24.2157 24.2388C24.3938 24.3444 24.5914 24.3972 24.8087 24.3972ZM36.1331 24.1075H35.0105C34.9441 23.7846 34.8279 23.501 34.662 23.2565C34.499 23.0121 34.2998 22.8069 34.0644 22.6409C33.8321 22.4719 33.5741 22.3452 33.2904 22.2607C33.0067 22.1762 32.711 22.1339 32.4032 22.1339C31.8419 22.1339 31.3334 22.2758 30.8777 22.5594C30.4251 22.8431 30.0644 23.261 29.7959 23.8133C29.5303 24.3655 29.3975 25.043 29.3975 25.8457C29.3975 26.6484 29.5303 27.3259 29.7959 27.8782C30.0644 28.4304 30.4251 28.8484 30.8777 29.132C31.3334 29.4157 31.8419 29.5575 32.4032 29.5575C32.711 29.5575 33.0067 29.5153 33.2904 29.4308C33.5741 29.3463 33.8321 29.2211 34.0644 29.0551C34.2998 28.8861 34.499 28.6794 34.662 28.4349C34.8279 28.1875 34.9441 27.9038 35.0105 27.5839H36.1331C36.0486 28.0577 35.8947 28.4817 35.6714 28.8559C35.4481 29.2301 35.1704 29.5485 34.8385 29.811C34.5065 30.0705 34.1338 30.2682 33.7204 30.404C33.31 30.5398 32.8709 30.6077 32.4032 30.6077C31.6125 30.6077 30.9094 30.4146 30.2938 30.0283C29.6782 29.642 29.1938 29.0928 28.8408 28.3806C28.4877 27.6684 28.3111 26.8235 28.3111 25.8457C28.3111 24.868 28.4877 24.023 28.8408 23.3108C29.1938 22.5987 29.6782 22.0494 30.2938 21.6632C30.9094 21.2769 31.6125 21.0838 32.4032 21.0838C32.8709 21.0838 33.31 21.1517 33.7204 21.2875C34.1338 21.4233 34.5065 21.6224 34.8385 21.885C35.1704 22.1445 35.4481 22.4613 35.6714 22.8355C35.8947 23.2067 36.0486 23.6307 36.1331 24.1075Z" fill="white"/>
<path d="M12.1743 7.27274L11.3838 8.22135V18.0237L12.1743 18.9723H12.9648L13.9134 18.0237V8.22135L12.9648 7.27274H12.1743Z" fill="white"/>
<path d="M15.9687 7.27274L15.1782 8.22135V18.0237L15.9687 18.9723H16.7593L17.7079 18.0237V8.22135L16.7593 7.27274H15.9687Z" fill="white"/>
<path d="M19.7632 7.27274L18.9727 8.22135V18.0237L19.7632 18.9723H20.5537L21.5023 18.0237V8.22135L20.5537 7.27274H19.7632Z" fill="white"/>
<path d="M23.5576 7.27274L22.7671 8.22135V18.0237L23.5576 18.9723H24.3481L25.2967 18.0237V8.22135L24.3481 7.27274H23.5576Z" fill="white"/>
<path d="M27.352 7.27274L26.5615 8.22135V18.0237L27.352 18.9723H28.1426L29.0912 18.0237V8.22135L28.1426 7.27274H27.352Z" fill="white"/>
<path d="M30.3557 8.22134H9.16992V9.64427H30.3557V8.22134Z" fill="white"/>
<path d="M31.779 16.6008H10.5933V18.0237H31.779V16.6008Z" fill="white"/>
</g>
<defs>
<linearGradient id="paint0_linear_7_2370" x1="-0.492482" y1="19.9977" x2="40.4916" y2="19.7744" gradientUnits="userSpaceOnUse">
<stop stop-color="#036A35"/>
<stop offset="1" stop-color="#94CC23"/>
</linearGradient>
<clipPath id="clip0_7_2370">
<rect width="40" height="40" fill="white"/>
</clipPath>
</defs>
</svg>
