<svg width="40" height="40" viewBox="0 0 40 40" fill="none" xmlns="http://www.w3.org/2000/svg">
<g clip-path="url(#clip0_7_2383)">
<path d="M40.4745 -0.474304H-0.474121V40.4743H40.4745V-0.474304Z" fill="url(#paint0_linear_7_2383)"/>
<path d="M12.1743 24.8221C12.4905 24.5059 12.8067 24.3478 13.281 24.3478C13.7553 24.3478 14.0715 24.5059 14.3877 24.8221C15.0201 25.4545 15.8106 25.7707 16.6012 25.7707C17.3917 25.7707 18.3403 25.4545 18.8146 24.8221C19.1308 24.5059 19.447 24.3478 19.9213 24.3478C20.3956 24.3478 20.7118 24.5059 21.028 24.8221C22.2929 26.087 24.3482 26.087 25.613 24.8221C26.0873 24.3478 26.4035 24.3478 26.7197 24.3478C27.194 24.3478 27.5103 24.5059 27.8265 24.8221C29.0913 26.087 31.1466 26.087 32.4114 24.8221C32.7276 24.5059 32.7276 24.0316 32.4114 23.7154C32.0952 23.3992 31.6209 23.3992 31.3047 23.7154C30.9885 24.0316 30.6723 24.1897 30.198 24.1897C29.7237 24.1897 29.4075 24.0316 29.0913 23.7154C28.4589 23.083 27.5103 22.7668 26.5616 22.7668V11.8577C26.5616 9.80236 24.8225 8.06323 22.7672 8.06323C20.7118 8.06323 18.9727 9.80236 18.9727 11.8577C18.9727 12.332 19.2889 12.6482 19.7632 12.6482C20.2375 12.6482 20.5537 12.332 20.5537 11.8577C20.5537 10.5929 21.5023 9.64426 22.7672 9.64426C24.032 9.64426 24.9806 10.5929 24.9806 11.8577V15.336H17.3917V11.8577C17.3917 9.80236 15.6525 8.06323 13.5972 8.06323C11.2257 8.06323 9.48654 9.64426 9.48654 11.8577C9.48654 12.332 9.96085 12.6482 10.4352 12.6482C10.9095 12.6482 11.2257 12.332 11.2257 11.8577C11.2257 10.5929 12.1743 9.64426 13.4391 9.64426C14.7039 9.64426 15.6525 10.5929 15.6525 11.8577V23.7154C14.2296 22.4506 12.1743 22.4506 11.0676 23.7154C10.7514 24.0316 10.4352 24.1897 9.96085 24.1897C9.48654 24.1897 9.17033 24.0316 8.85413 23.7154C8.53792 23.3992 8.06361 23.3992 7.74741 23.7154C7.4312 24.0316 7.4312 24.5059 7.74741 24.8221C8.85413 26.087 10.9095 26.087 12.1743 24.8221ZM23.2415 24.1897C22.7672 24.1897 22.451 24.0316 22.1348 23.7154C20.8699 22.4506 18.8146 22.4506 17.5498 23.7154C17.3917 23.8735 17.2336 24.0316 17.0755 24.0316V21.9763H24.6644V23.3992C24.5063 23.5573 24.5063 23.5573 24.3482 23.7154C24.1901 24.0316 23.7158 24.1897 23.2415 24.1897ZM24.6644 17.0751V20.3952H17.0755V17.0751H24.6644Z" fill="white"/>
<path d="M31.1465 27.1937C30.8303 27.5099 30.5141 27.668 30.0398 27.668C29.5655 27.668 29.2493 27.5099 28.9331 27.1937C27.6683 25.9289 25.6129 25.9289 24.3481 27.1937C24.0319 27.5099 23.7157 27.668 23.2414 27.668C22.7671 27.668 22.4509 27.5099 22.1347 27.1937C20.8698 25.9289 18.8145 25.9289 17.5497 27.1937C17.2335 27.5099 16.9173 27.668 16.443 27.668C15.9687 27.668 15.6524 27.5099 15.3362 27.1937C14.0714 25.9289 12.0161 25.9289 10.7513 27.1937C10.4351 27.5099 10.1188 27.668 9.64454 27.668C9.17023 27.668 8.85403 27.5099 8.53782 27.1937C8.53782 26.8775 7.90541 26.8775 7.5892 27.1937C7.273 27.5099 7.273 27.9842 7.5892 28.3004C8.85403 29.5652 10.9094 29.5652 12.1742 28.3004C12.4904 27.9842 12.8066 27.8261 13.2809 27.8261C13.7552 27.8261 14.0714 27.9842 14.3876 28.3004C15.02 28.9328 15.8105 29.249 16.6011 29.249C17.3916 29.249 18.1821 28.9328 18.8145 28.3004C19.1307 27.9842 19.4469 27.8261 19.9212 27.8261C20.3955 27.8261 20.7117 27.9842 21.0279 28.3004C22.2928 29.5652 24.3481 29.5652 25.6129 28.3004C25.9291 27.9842 26.2453 27.8261 26.7196 27.8261C27.1939 27.8261 27.5102 27.9842 27.8264 28.3004C29.0912 29.5652 31.1465 29.5652 32.4113 28.3004C32.7275 27.9842 32.7275 27.5099 32.4113 27.1937C31.937 26.8775 31.4627 26.8775 31.1465 27.1937Z" fill="white"/>
<path d="M31.1465 30.6719C30.8303 30.9882 30.5141 31.1463 30.0398 31.1463C29.5655 31.1463 29.2493 30.9882 28.9331 30.6719C28.3007 30.0395 27.5102 29.7233 26.7196 29.7233C25.9291 29.7233 24.9805 30.0395 24.5062 30.6719C24.19 30.9882 23.8738 31.1463 23.3995 31.1463C22.9252 31.1463 22.609 30.9882 22.2928 30.6719C21.0279 29.4071 18.9726 29.4071 17.7078 30.6719C17.3916 30.9882 17.0754 31.1463 16.6011 31.1463C16.1268 31.1463 15.8105 30.9882 15.4943 30.6719C14.2295 29.4071 12.1742 29.4071 10.9094 30.6719C10.5932 30.9882 10.277 31.1463 9.80264 31.1463C9.32833 31.1463 9.01213 30.9882 8.69592 30.6719C8.37972 30.3557 7.90541 30.3557 7.5892 30.6719C7.273 30.9882 7.273 31.4625 7.5892 31.7787C8.85403 33.0435 10.9094 33.0435 12.1742 31.7787C12.4904 31.4625 12.8066 31.3044 13.2809 31.3044C13.7552 31.3044 14.0714 31.4625 14.3876 31.7787C15.02 32.4111 15.8105 32.7273 16.6011 32.7273C17.3916 32.7273 18.3402 32.4111 18.8145 31.7787C19.1307 31.4625 19.4469 31.3044 19.9212 31.3044C20.3955 31.3044 20.7117 31.4625 21.0279 31.7787C22.2928 33.0435 24.3481 33.0435 25.6129 31.7787C25.9291 31.4625 26.2453 31.3044 26.7196 31.3044C27.1939 31.3044 27.5102 31.4625 27.8264 31.7787C29.0912 33.0435 31.1465 33.0435 32.4113 31.7787C32.7275 31.4625 32.7275 30.9882 32.4113 30.6719C31.937 30.3557 31.4627 30.3557 31.1465 30.6719Z" fill="white"/>
</g>
<defs>
<linearGradient id="paint0_linear_7_2383" x1="-0.492482" y1="19.9977" x2="40.4916" y2="19.7744" gradientUnits="userSpaceOnUse">
<stop stop-color="#036A35"/>
<stop offset="1" stop-color="#94CC23"/>
</linearGradient>
<clipPath id="clip0_7_2383">
<rect width="40" height="40" fill="white"/>
</clipPath>
</defs>
</svg>
