<svg width="40" height="40" viewBox="0 0 40 40" fill="none" xmlns="http://www.w3.org/2000/svg">
<g clip-path="url(#clip0_7_2391)">
<path d="M12.1738 7.11461L18.656 10.9091L27.5098 8.53754L21.1857 4.74307L12.1738 7.11461Z" fill="url(#paint0_linear_7_2391)"/>
<path d="M12.174 7.11463L11.6997 7.27273L18.1819 11.0672L19.2886 11.2253L28.1424 8.85376L27.9843 8.37945L21.5021 4.74309L20.5535 4.42688L11.6997 6.79842V7.27273L12.174 7.11463L12.8064 7.43083L21.1859 5.21739L26.5614 8.37945L18.4981 10.4348L12.6483 7.11463H12.174L12.8064 7.43083L12.174 7.11463Z" fill="white"/>
<path d="M40.4745 -0.474304H-0.474121V40.4743H40.4745V-0.474304Z" fill="url(#paint1_linear_7_2391)"/>
<path d="M3.47852 19.6047L7.43108 20.3953L6.64057 17.0751L3.47852 19.6047Z" fill="white"/>
<path d="M23.7157 5.0593L15.8105 7.27273V29.249L23.7157 27.1937V5.0593Z" fill="url(#paint2_linear_7_2391)"/>
<path d="M23.7154 5.05928V4.74307L15.8102 6.79841C15.494 6.79841 15.3359 7.11461 15.3359 7.43082V29.5652L15.494 29.8814H15.8102L23.5573 27.8261C23.8735 27.8261 24.0316 27.5099 24.0316 27.1937V5.05928V4.74307H23.7154V5.05928L23.2411 5.21738V26.8775L16.2846 28.7747V7.58892L23.7154 5.53359V5.05928Z" fill="white"/>
<path d="M11.2256 19.7628V29.7233L18.1821 33.6759V23.7154L11.2256 19.7628Z" fill="url(#paint3_linear_7_2391)"/>
<path d="M11.2254 19.7629L10.9092 19.6047V29.5652C10.9092 29.8814 11.0673 30.1976 11.2254 30.3557L18.1819 34.3083H18.4981L18.6562 33.9921V24.0316C18.6562 23.7154 18.4981 23.3992 18.34 23.2411L11.3835 19.2885H11.0673L10.9092 19.6047L11.2254 19.7629V20.2372L17.8657 24.0316V32.8854L11.6997 29.249V19.7629H11.2254Z" fill="white"/>
<path d="M23.7155 22.4506L18.6562 23.7154V33.9921L23.7155 32.5692V22.4506Z" fill="url(#paint4_linear_7_2391)"/>
<path d="M23.7157 22.4506V21.9763L18.6564 23.2411C18.3402 23.2411 18.1821 23.5573 18.1821 23.8736V33.9921L18.3402 34.3083H18.6564L23.7157 33.0435C24.0319 33.0435 24.19 32.7273 24.19 32.4111V22.2925L24.0319 21.9763H23.7157V22.4506L23.2414 22.6087V32.4111L19.1307 33.5178V24.1898L23.7157 22.9249V22.4506Z" fill="white"/>
<path d="M11.5415 19.4467L18.1818 23.2411L26.7194 21.0277L20.0791 17.2332L11.5415 19.4467Z" fill="url(#paint5_linear_7_2391)"/>
<path d="M11.5417 19.4466L11.0674 19.6047L17.7077 23.3992C17.8658 23.5573 18.0239 23.5573 18.182 23.5573C18.3401 23.5573 18.4982 23.5573 18.6563 23.5573L27.0358 21.3439C27.1939 21.3439 27.1939 21.0277 26.8777 20.8696L20.2373 17.0751C20.0792 16.917 19.9211 16.917 19.763 16.917C19.6049 16.917 19.4468 16.917 19.2887 16.917L11.0674 19.1304C10.7512 19.1304 10.9093 19.4466 11.2255 19.6047L11.5417 19.4466L12.016 19.7628L20.0792 17.5494L25.6128 20.7115L18.0239 22.7668L11.8579 19.2885L11.5417 19.4466Z" fill="white"/>
<path d="M31.9369 8.85376L23.2412 11.2253V33.3597L31.9369 30.9881V8.85376Z" fill="url(#paint6_linear_7_2391)"/>
<path d="M31.9371 8.85376V8.37946L23.2414 10.751C22.9252 10.751 22.7671 11.0672 22.7671 11.3834V33.5178L22.9252 33.834H23.2414L31.9371 31.4625C32.2533 31.4625 32.4114 31.1463 32.4114 30.83V8.69566L32.2533 8.37946H31.9371V8.85376L31.4627 9.01187V30.6719L23.5576 32.7273V11.5415L31.9371 9.32807V8.85376Z" fill="white"/>
<path d="M15.9688 7.27274V18.3399L23.0834 22.4506V11.3834L15.9688 7.27274Z" fill="url(#paint7_linear_7_2391)"/>
<path d="M15.9686 7.27274L15.6523 7.11464V18.1818C15.6523 18.498 15.8104 18.8142 15.9686 18.9723L22.9251 22.9249H23.2413L23.3994 22.6087V11.5415C23.3994 11.2253 23.2413 10.9091 23.0832 10.751L16.1267 6.79843H15.8104L15.6523 7.11464L15.9686 7.27274V7.90515L22.6089 11.6996V21.6601L16.4429 18.0237V7.58895L15.9686 7.27274Z" fill="white"/>
<path d="M12.0159 16.6008L6.32422 18.1818L6.79853 19.4466L12.3321 17.7075" fill="white"/>
</g>
<defs>
<linearGradient id="paint0_linear_7_2391" x1="12.167" y1="7.82573" x2="27.5139" y2="7.61782" gradientUnits="userSpaceOnUse">
<stop stop-color="#036A35"/>
<stop offset="1" stop-color="#94CC23"/>
</linearGradient>
<linearGradient id="paint1_linear_7_2391" x1="-0.492482" y1="19.9977" x2="40.4916" y2="19.7744" gradientUnits="userSpaceOnUse">
<stop stop-color="#036A35"/>
<stop offset="1" stop-color="#94CC23"/>
</linearGradient>
<linearGradient id="paint2_linear_7_2391" x1="15.807" y1="17.1528" x2="23.7192" y2="17.1387" gradientUnits="userSpaceOnUse">
<stop stop-color="#036A35"/>
<stop offset="1" stop-color="#94CC23"/>
</linearGradient>
<linearGradient id="paint3_linear_7_2391" x1="11.2225" y1="26.7186" x2="18.1852" y2="26.6996" gradientUnits="userSpaceOnUse">
<stop stop-color="#036A35"/>
<stop offset="1" stop-color="#94CC23"/>
</linearGradient>
<linearGradient id="paint4_linear_7_2391" x1="18.654" y1="28.2207" x2="23.7178" y2="28.2086" gradientUnits="userSpaceOnUse">
<stop stop-color="#036A35"/>
<stop offset="1" stop-color="#94CC23"/>
</linearGradient>
<linearGradient id="paint5_linear_7_2391" x1="11.5347" y1="20.2368" x2="26.7233" y2="20.0278" gradientUnits="userSpaceOnUse">
<stop stop-color="#036A35"/>
<stop offset="1" stop-color="#94CC23"/>
</linearGradient>
<linearGradient id="paint6_linear_7_2391" x1="23.2373" y1="21.1053" x2="31.9407" y2="21.0885" gradientUnits="userSpaceOnUse">
<stop stop-color="#036A35"/>
<stop offset="1" stop-color="#94CC23"/>
</linearGradient>
<linearGradient id="paint7_linear_7_2391" x1="15.9656" y1="14.8608" x2="23.0865" y2="14.8426" gradientUnits="userSpaceOnUse">
<stop stop-color="#036A35"/>
<stop offset="1" stop-color="#94CC23"/>
</linearGradient>
<clipPath id="clip0_7_2391">
<rect width="40" height="40" fill="white"/>
</clipPath>
</defs>
</svg>
